%TF.GenerationSoftware,KiCad,Pcbnew,9.0.5*%
%TF.CreationDate,2025-10-28T18:52:56+01:00*%
%TF.ProjectId,TAG-Loetkit,5441472d-4c6f-4657-946b-69742e6b6963,rev?*%
%TF.SameCoordinates,Original*%
%TF.FileFunction,Soldermask,Bot*%
%TF.FilePolarity,Negative*%
%FSLAX46Y46*%
G04 Gerber Fmt 4.6, Leading zero omitted, Abs format (unit mm)*
G04 Created by KiCad (PCBNEW 9.0.5) date 2025-10-28 18:52:56*
%MOMM*%
%LPD*%
G01*
G04 APERTURE LIST*
G04 Aperture macros list*
%AMRoundRect*
0 Rectangle with rounded corners*
0 $1 Rounding radius*
0 $2 $3 $4 $5 $6 $7 $8 $9 X,Y pos of 4 corners*
0 Add a 4 corners polygon primitive as box body*
4,1,4,$2,$3,$4,$5,$6,$7,$8,$9,$2,$3,0*
0 Add four circle primitives for the rounded corners*
1,1,$1+$1,$2,$3*
1,1,$1+$1,$4,$5*
1,1,$1+$1,$6,$7*
1,1,$1+$1,$8,$9*
0 Add four rect primitives between the rounded corners*
20,1,$1+$1,$2,$3,$4,$5,0*
20,1,$1+$1,$4,$5,$6,$7,0*
20,1,$1+$1,$6,$7,$8,$9,0*
20,1,$1+$1,$8,$9,$2,$3,0*%
G04 Aperture macros list end*
%ADD10RoundRect,0.250000X0.550000X0.550000X-0.550000X0.550000X-0.550000X-0.550000X0.550000X-0.550000X0*%
%ADD11C,1.600000*%
%ADD12C,2.000000*%
%ADD13RoundRect,0.250000X-0.550000X0.550000X-0.550000X-0.550000X0.550000X-0.550000X0.550000X0.550000X0*%
%ADD14R,1.600000X1.600000*%
%ADD15C,4.000000*%
%ADD16C,2.300000*%
%ADD17R,1.700000X1.700000*%
%ADD18C,1.700000*%
%ADD19C,1.500000*%
%ADD20RoundRect,0.250000X-0.600000X-0.725000X0.600000X-0.725000X0.600000X0.725000X-0.600000X0.725000X0*%
%ADD21O,1.700000X1.950000*%
%ADD22RoundRect,0.250000X-0.450000X0.350000X-0.450000X-0.350000X0.450000X-0.350000X0.450000X0.350000X0*%
%ADD23R,0.300000X1.450000*%
%ADD24O,1.000000X1.600000*%
%ADD25O,1.000000X2.100000*%
%ADD26C,0.650000*%
%ADD27RoundRect,0.250000X0.450000X-0.350000X0.450000X0.350000X-0.450000X0.350000X-0.450000X-0.350000X0*%
G04 APERTURE END LIST*
D10*
%TO.C,SW2*%
X198500000Y-148040000D03*
D11*
X198500000Y-145500000D03*
X198500000Y-142960000D03*
X198500000Y-140420000D03*
X198500000Y-137880000D03*
X198500000Y-135340000D03*
X198500000Y-132800000D03*
X198500000Y-130260000D03*
X198500000Y-127720000D03*
X190880000Y-127720000D03*
X190880000Y-130260000D03*
X190880000Y-132800000D03*
X190880000Y-135340000D03*
X190880000Y-137880000D03*
X190880000Y-140420000D03*
X190880000Y-142960000D03*
X190880000Y-145500000D03*
X190880000Y-148040000D03*
%TD*%
D12*
%TO.C,SW3*%
X160250000Y-111750000D03*
X160250000Y-118250000D03*
X155750000Y-111750000D03*
X155750000Y-118250000D03*
%TD*%
D13*
%TO.C,C16*%
X165250000Y-112567621D03*
D11*
X165250000Y-115067621D03*
%TD*%
D14*
%TO.C,J1*%
X158000000Y-108500000D03*
D11*
X160500000Y-108500000D03*
X160500000Y-106500000D03*
X158000000Y-106500000D03*
D15*
X153250000Y-103640000D03*
X165250000Y-103640000D03*
%TD*%
D16*
%TO.C,Y1*%
X186000000Y-138050000D03*
X186000000Y-142950000D03*
%TD*%
D17*
%TO.C,J6*%
X152000000Y-117540000D03*
D18*
X152000000Y-115000000D03*
X152000000Y-112460000D03*
%TD*%
D19*
%TO.C,SW1*%
X187500000Y-118825000D03*
X185000000Y-118825000D03*
X182500000Y-118825000D03*
X182500000Y-122175000D03*
X185000000Y-122175000D03*
X187500000Y-122175000D03*
%TD*%
D20*
%TO.C,J3*%
X192500000Y-102975000D03*
D21*
X195000000Y-102975000D03*
X197500000Y-102975000D03*
%TD*%
D20*
%TO.C,J2*%
X181500000Y-102975000D03*
D21*
X184000000Y-102975000D03*
X186500000Y-102975000D03*
%TD*%
D17*
%TO.C,J4*%
X187310000Y-148500000D03*
D18*
X184770000Y-148500000D03*
X182230000Y-148500000D03*
X179690000Y-148500000D03*
%TD*%
D22*
%TO.C,R2*%
X172500000Y-110500000D03*
X172500000Y-112500000D03*
%TD*%
D23*
%TO.C,J5*%
X170100000Y-107585000D03*
X170900000Y-107585000D03*
X172250000Y-107585000D03*
X173250000Y-107585000D03*
X173750000Y-107585000D03*
X174750000Y-107585000D03*
X176100000Y-107585000D03*
X176900000Y-107585000D03*
X176600000Y-107585000D03*
X175800000Y-107585000D03*
X175250000Y-107585000D03*
X174250000Y-107585000D03*
X172750000Y-107585000D03*
X171750000Y-107585000D03*
X171200000Y-107585000D03*
X170400000Y-107585000D03*
D24*
X169180000Y-102490000D03*
D25*
X169180000Y-106670000D03*
D24*
X177820000Y-102490000D03*
D25*
X177820000Y-106670000D03*
D26*
X170610000Y-106140000D03*
X176390000Y-106140000D03*
%TD*%
D27*
%TO.C,R3*%
X174500000Y-112500000D03*
X174500000Y-110500000D03*
%TD*%
M02*
