%TF.GenerationSoftware,KiCad,Pcbnew,9.0.5*%
%TF.CreationDate,2025-10-28T18:52:55+01:00*%
%TF.ProjectId,TAG-Loetkit,5441472d-4c6f-4657-946b-69742e6b6963,rev?*%
%TF.SameCoordinates,Original*%
%TF.FileFunction,Paste,Top*%
%TF.FilePolarity,Positive*%
%FSLAX46Y46*%
G04 Gerber Fmt 4.6, Leading zero omitted, Abs format (unit mm)*
G04 Created by KiCad (PCBNEW 9.0.5) date 2025-10-28 18:52:55*
%MOMM*%
%LPD*%
G01*
G04 APERTURE LIST*
G04 Aperture macros list*
%AMRoundRect*
0 Rectangle with rounded corners*
0 $1 Rounding radius*
0 $2 $3 $4 $5 $6 $7 $8 $9 X,Y pos of 4 corners*
0 Add a 4 corners polygon primitive as box body*
4,1,4,$2,$3,$4,$5,$6,$7,$8,$9,$2,$3,0*
0 Add four circle primitives for the rounded corners*
1,1,$1+$1,$2,$3*
1,1,$1+$1,$4,$5*
1,1,$1+$1,$6,$7*
1,1,$1+$1,$8,$9*
0 Add four rect primitives between the rounded corners*
20,1,$1+$1,$2,$3,$4,$5,0*
20,1,$1+$1,$4,$5,$6,$7,0*
20,1,$1+$1,$6,$7,$8,$9,0*
20,1,$1+$1,$8,$9,$2,$3,0*%
G04 Aperture macros list end*
%ADD10RoundRect,0.250000X-0.412500X-0.650000X0.412500X-0.650000X0.412500X0.650000X-0.412500X0.650000X0*%
%ADD11RoundRect,0.250000X-0.650000X0.412500X-0.650000X-0.412500X0.650000X-0.412500X0.650000X0.412500X0*%
%ADD12RoundRect,0.200000X-1.050000X-0.800000X1.050000X-0.800000X1.050000X0.800000X-1.050000X0.800000X0*%
%ADD13RoundRect,0.100000X-0.637500X-0.100000X0.637500X-0.100000X0.637500X0.100000X-0.637500X0.100000X0*%
%ADD14RoundRect,0.150000X-0.825000X-0.150000X0.825000X-0.150000X0.825000X0.150000X-0.825000X0.150000X0*%
%ADD15RoundRect,0.250001X-0.462499X-0.624999X0.462499X-0.624999X0.462499X0.624999X-0.462499X0.624999X0*%
%ADD16RoundRect,0.250000X-0.400000X-0.625000X0.400000X-0.625000X0.400000X0.625000X-0.400000X0.625000X0*%
%ADD17RoundRect,0.250000X0.475000X-0.337500X0.475000X0.337500X-0.475000X0.337500X-0.475000X-0.337500X0*%
%ADD18RoundRect,0.250000X0.650000X-0.412500X0.650000X0.412500X-0.650000X0.412500X-0.650000X-0.412500X0*%
%ADD19RoundRect,0.100000X-0.850000X-0.100000X0.850000X-0.100000X0.850000X0.100000X-0.850000X0.100000X0*%
G04 APERTURE END LIST*
D10*
%TO.C,C12*%
X172375000Y-141250000D03*
X175500000Y-141250000D03*
%TD*%
D11*
%TO.C,C2*%
X182000000Y-135937500D03*
X182000000Y-139062500D03*
%TD*%
D10*
%TO.C,C4*%
X153225000Y-121200000D03*
X156350000Y-121200000D03*
%TD*%
D12*
%TO.C,D6*%
X170750000Y-133700000D03*
X170750000Y-138000000D03*
X176550000Y-138000000D03*
X176550000Y-133700000D03*
%TD*%
%TO.C,D3*%
X170750000Y-123700000D03*
X170750000Y-128000000D03*
X176550000Y-128000000D03*
X176550000Y-123700000D03*
%TD*%
D11*
%TO.C,C6*%
X179500000Y-124437500D03*
X179500000Y-127562500D03*
%TD*%
D10*
%TO.C,C11*%
X162725000Y-141200000D03*
X165850000Y-141200000D03*
%TD*%
D13*
%TO.C,U1*%
X182137500Y-127575000D03*
X182137500Y-128225000D03*
X182137500Y-128875000D03*
X182137500Y-129525000D03*
X182137500Y-130175000D03*
X182137500Y-130825000D03*
X182137500Y-131475000D03*
X182137500Y-132125000D03*
X182137500Y-132775000D03*
X182137500Y-133425000D03*
X187862500Y-133425000D03*
X187862500Y-132775000D03*
X187862500Y-132125000D03*
X187862500Y-131475000D03*
X187862500Y-130825000D03*
X187862500Y-130175000D03*
X187862500Y-129525000D03*
X187862500Y-128875000D03*
X187862500Y-128225000D03*
X187862500Y-127575000D03*
%TD*%
D11*
%TO.C,C13*%
X196525000Y-111342500D03*
X196525000Y-114467500D03*
%TD*%
D14*
%TO.C,U2*%
X187525000Y-111095000D03*
X187525000Y-112365000D03*
X187525000Y-113635000D03*
X187525000Y-114905000D03*
X192475000Y-114905000D03*
X192475000Y-113635000D03*
X192475000Y-112365000D03*
X192475000Y-111095000D03*
%TD*%
D10*
%TO.C,C5*%
X162725000Y-121200000D03*
X165850000Y-121200000D03*
%TD*%
D12*
%TO.C,D7*%
X151600000Y-143650000D03*
X151600000Y-147950000D03*
X157400000Y-147950000D03*
X157400000Y-143650000D03*
%TD*%
D11*
%TO.C,C14*%
X183900000Y-111337500D03*
X183900000Y-114462500D03*
%TD*%
D12*
%TO.C,D4*%
X151600000Y-133650000D03*
X151600000Y-137950000D03*
X157400000Y-137950000D03*
X157400000Y-133650000D03*
%TD*%
D15*
%TO.C,D10*%
X195525000Y-121800000D03*
X198500000Y-121800000D03*
%TD*%
D16*
%TO.C,R4*%
X195500000Y-118200000D03*
X198600000Y-118200000D03*
%TD*%
D12*
%TO.C,D9*%
X170750000Y-143700000D03*
X170750000Y-148000000D03*
X176550000Y-148000000D03*
X176550000Y-143700000D03*
%TD*%
D10*
%TO.C,C10*%
X153225000Y-141200000D03*
X156350000Y-141200000D03*
%TD*%
D17*
%TO.C,C1*%
X180000000Y-133037500D03*
X180000000Y-130962500D03*
%TD*%
D12*
%TO.C,D8*%
X161100000Y-143650000D03*
X161100000Y-147950000D03*
X166900000Y-147950000D03*
X166900000Y-143650000D03*
%TD*%
D10*
%TO.C,C9*%
X172375000Y-131250000D03*
X175500000Y-131250000D03*
%TD*%
%TO.C,C8*%
X162725000Y-131200000D03*
X165850000Y-131200000D03*
%TD*%
D12*
%TO.C,D5*%
X161100000Y-133650000D03*
X161100000Y-137950000D03*
X166900000Y-137950000D03*
X166900000Y-133650000D03*
%TD*%
D10*
%TO.C,C7*%
X153225000Y-131200000D03*
X156350000Y-131200000D03*
%TD*%
D18*
%TO.C,C15*%
X180600000Y-114462500D03*
X180600000Y-111337500D03*
%TD*%
D19*
%TO.C,U3*%
X169900000Y-108175000D03*
X169900000Y-108825000D03*
X169900000Y-109475000D03*
X169900000Y-110125000D03*
X169900000Y-110775000D03*
X169900000Y-111425000D03*
X169900000Y-112075000D03*
X169900000Y-112725000D03*
X169900000Y-113375000D03*
X169900000Y-114025000D03*
X169900000Y-114675000D03*
X169900000Y-115325000D03*
X169900000Y-115975000D03*
X169900000Y-116625000D03*
X176900000Y-116625000D03*
X176900000Y-115975000D03*
X176900000Y-115325000D03*
X176900000Y-114675000D03*
X176900000Y-114025000D03*
X176900000Y-113375000D03*
X176900000Y-112725000D03*
X176900000Y-112075000D03*
X176900000Y-111425000D03*
X176900000Y-110775000D03*
X176900000Y-110125000D03*
X176900000Y-109475000D03*
X176900000Y-108825000D03*
X176900000Y-108175000D03*
%TD*%
D18*
%TO.C,C3*%
X182000000Y-145062500D03*
X182000000Y-141937500D03*
%TD*%
D12*
%TO.C,D2*%
X161100000Y-123650000D03*
X161100000Y-127950000D03*
X166900000Y-127950000D03*
X166900000Y-123650000D03*
%TD*%
%TO.C,D1*%
X151600000Y-123650000D03*
X151600000Y-127950000D03*
X157400000Y-127950000D03*
X157400000Y-123650000D03*
%TD*%
M02*
