M48
; DRILL file {KiCad 9.0.5} date 2025-10-28T18:52:58+0100
; FORMAT={-:-/ absolute / inch / decimal}
; #@! TF.CreationDate,2025-10-28T18:52:58+01:00
; #@! TF.GenerationSoftware,Kicad,Pcbnew,9.0.5
; #@! TF.FileFunction,Plated,1,2,PTH
FMAT,2
INCH
; #@! TA.AperFunction,Plated,PTH,ViaDrill
T1C0.0118
; #@! TA.AperFunction,Plated,PTH,ComponentDrill
T2C0.0236
; #@! TA.AperFunction,Plated,PTH,ComponentDrill
T3C0.0256
; #@! TA.AperFunction,Plated,PTH,ComponentDrill
T4C0.0315
; #@! TA.AperFunction,Plated,PTH,ComponentDrill
T5C0.0374
; #@! TA.AperFunction,Plated,PTH,ComponentDrill
T6C0.0394
; #@! TA.AperFunction,Plated,PTH,ComponentDrill
T7C0.0433
; #@! TA.AperFunction,Plated,PTH,ComponentDrill
T8C0.0591
; #@! TA.AperFunction,Plated,PTH,ComponentDrill
T9C0.0906
%
G90
G05
T1
X6.0512Y-5.6575
X6.0551Y-4.8661
X6.0551Y-5.2677
X6.0748Y-4.6949
X6.1142Y-5.8228
X6.122Y-5.4291
X6.126Y-5.0354
X6.2106Y-4.5768
X6.2165Y-5.5591
X6.2244Y-5.1614
X6.2303Y-4.7047
X6.4173Y-4.8661
X6.4173Y-5.2598
X6.4173Y-5.6417
X6.4764Y-4.7933
X6.4764Y-5.8307
X6.4961Y-5.4409
X6.5Y-5.0394
X6.5059Y-4.6457
X6.6024Y-4.7756
X6.6024Y-5.563
X6.6063Y-4.3346
X6.6063Y-4.4213
X6.6496Y-4.7755
X6.6496Y-4.9134
X6.6535Y-5.8248
X6.7992Y-4.8701
X6.8031Y-5.2559
X6.8031Y-5.6535
X6.8189Y-4.7835
X6.8337Y-4.292
X6.8622Y-5.8268
X6.8661Y-5.0433
X6.8671Y-4.292
X6.874Y-5.4331
X6.9724Y-5.1614
X6.9764Y-5.5551
X7.0354Y-5.7126
X7.0451Y-5.2027
X7.1457Y-4.9803
X7.1654Y-5.5315
X7.1811Y-4.9803
X7.185Y-4.5984
X7.2283Y-5.2283
X7.2362Y-4.3307
X7.2481Y-5.0994
X7.2913Y-5.0945
X7.3327Y-5.0394
X7.3425Y-5.2635
X7.343Y-5.232
X7.3519Y-5.2008
X7.4331Y-5.7362
X7.4488Y-5.8071
X7.4528Y-4.9764
X7.5787Y-4.3307
X7.6535Y-4.5236
T3
X6.7169Y-4.1787
X6.9445Y-4.1787
T4
X6.5059Y-4.4318
X6.5059Y-4.5302
X7.185Y-4.6781
X7.185Y-4.81
X7.2835Y-4.6781
X7.2835Y-4.81
X7.3819Y-4.6781
X7.3819Y-4.81
X7.515Y-5.0283
X7.515Y-5.1283
X7.515Y-5.2283
X7.515Y-5.3283
X7.515Y-5.4283
X7.515Y-5.5283
X7.515Y-5.6283
X7.515Y-5.7283
X7.515Y-5.8283
X7.815Y-5.0283
X7.815Y-5.1283
X7.815Y-5.2283
X7.815Y-5.3283
X7.815Y-5.4283
X7.815Y-5.5283
X7.815Y-5.6283
X7.815Y-5.7283
X7.815Y-5.8283
T5
X6.2205Y-4.1929
X6.2205Y-4.2717
X6.3189Y-4.1929
X6.3189Y-4.2717
X7.1457Y-4.0541
X7.2441Y-4.0541
X7.3425Y-4.0541
X7.5787Y-4.0541
X7.6772Y-4.0541
X7.7756Y-4.0541
T6
X5.9843Y-4.4276
X5.9843Y-4.5276
X5.9843Y-4.6276
X7.0744Y-5.8465
X7.1744Y-5.8465
X7.2744Y-5.8465
X7.3744Y-5.8465
T7
X6.1319Y-4.3996
X6.1319Y-4.6555
X6.3091Y-4.3996
X6.3091Y-4.6555
T8
X7.3228Y-5.435
X7.3228Y-5.628
T9
X6.0335Y-4.0803
X6.5059Y-4.0803
T2
G00X6.6606Y-4.0232
M15
G01X6.6606Y-4.0469
M16
G05
G00X6.6606Y-4.178
M15
G01X6.6606Y-4.2213
M16
G05
G00X7.0008Y-4.0232
M15
G01X7.0008Y-4.0469
M16
G05
G00X7.0008Y-4.178
M15
G01X7.0008Y-4.2213
M16
G05
M30
