%TF.GenerationSoftware,KiCad,Pcbnew,9.0.5*%
%TF.CreationDate,2025-10-28T18:52:55+01:00*%
%TF.ProjectId,TAG-Loetkit,5441472d-4c6f-4657-946b-69742e6b6963,rev?*%
%TF.SameCoordinates,Original*%
%TF.FileFunction,Copper,L2,Bot*%
%TF.FilePolarity,Positive*%
%FSLAX46Y46*%
G04 Gerber Fmt 4.6, Leading zero omitted, Abs format (unit mm)*
G04 Created by KiCad (PCBNEW 9.0.5) date 2025-10-28 18:52:55*
%MOMM*%
%LPD*%
G01*
G04 APERTURE LIST*
G04 Aperture macros list*
%AMRoundRect*
0 Rectangle with rounded corners*
0 $1 Rounding radius*
0 $2 $3 $4 $5 $6 $7 $8 $9 X,Y pos of 4 corners*
0 Add a 4 corners polygon primitive as box body*
4,1,4,$2,$3,$4,$5,$6,$7,$8,$9,$2,$3,0*
0 Add four circle primitives for the rounded corners*
1,1,$1+$1,$2,$3*
1,1,$1+$1,$4,$5*
1,1,$1+$1,$6,$7*
1,1,$1+$1,$8,$9*
0 Add four rect primitives between the rounded corners*
20,1,$1+$1,$2,$3,$4,$5,0*
20,1,$1+$1,$4,$5,$6,$7,0*
20,1,$1+$1,$6,$7,$8,$9,0*
20,1,$1+$1,$8,$9,$2,$3,0*%
G04 Aperture macros list end*
%TA.AperFunction,ComponentPad*%
%ADD10RoundRect,0.250000X0.550000X0.550000X-0.550000X0.550000X-0.550000X-0.550000X0.550000X-0.550000X0*%
%TD*%
%TA.AperFunction,ComponentPad*%
%ADD11C,1.600000*%
%TD*%
%TA.AperFunction,ComponentPad*%
%ADD12C,2.000000*%
%TD*%
%TA.AperFunction,ComponentPad*%
%ADD13RoundRect,0.250000X-0.550000X0.550000X-0.550000X-0.550000X0.550000X-0.550000X0.550000X0.550000X0*%
%TD*%
%TA.AperFunction,ComponentPad*%
%ADD14R,1.600000X1.600000*%
%TD*%
%TA.AperFunction,ComponentPad*%
%ADD15C,4.000000*%
%TD*%
%TA.AperFunction,ComponentPad*%
%ADD16C,2.300000*%
%TD*%
%TA.AperFunction,ComponentPad*%
%ADD17R,1.700000X1.700000*%
%TD*%
%TA.AperFunction,ComponentPad*%
%ADD18C,1.700000*%
%TD*%
%TA.AperFunction,ComponentPad*%
%ADD19C,1.500000*%
%TD*%
%TA.AperFunction,ComponentPad*%
%ADD20RoundRect,0.250000X-0.600000X-0.725000X0.600000X-0.725000X0.600000X0.725000X-0.600000X0.725000X0*%
%TD*%
%TA.AperFunction,ComponentPad*%
%ADD21O,1.700000X1.950000*%
%TD*%
%TA.AperFunction,SMDPad,CuDef*%
%ADD22RoundRect,0.250000X-0.450000X0.350000X-0.450000X-0.350000X0.450000X-0.350000X0.450000X0.350000X0*%
%TD*%
%TA.AperFunction,SMDPad,CuDef*%
%ADD23R,0.300000X1.450000*%
%TD*%
%TA.AperFunction,ComponentPad*%
%ADD24O,1.000000X1.600000*%
%TD*%
%TA.AperFunction,ComponentPad*%
%ADD25O,1.000000X2.100000*%
%TD*%
%TA.AperFunction,ComponentPad*%
%ADD26C,0.650000*%
%TD*%
%TA.AperFunction,SMDPad,CuDef*%
%ADD27RoundRect,0.250000X0.450000X-0.350000X0.450000X0.350000X-0.450000X0.350000X-0.450000X-0.350000X0*%
%TD*%
%TA.AperFunction,ViaPad*%
%ADD28C,0.600000*%
%TD*%
%TA.AperFunction,Conductor*%
%ADD29C,1.000000*%
%TD*%
%TA.AperFunction,Conductor*%
%ADD30C,0.300000*%
%TD*%
%TA.AperFunction,Conductor*%
%ADD31C,0.500000*%
%TD*%
%TA.AperFunction,Conductor*%
%ADD32C,0.750000*%
%TD*%
%TA.AperFunction,Conductor*%
%ADD33C,0.200000*%
%TD*%
G04 APERTURE END LIST*
D10*
%TO.P,SW2,1*%
%TO.N,GND*%
X198500000Y-148040000D03*
D11*
%TO.P,SW2,2*%
X198500000Y-145500000D03*
%TO.P,SW2,3*%
X198500000Y-142960000D03*
%TO.P,SW2,4*%
X198500000Y-140420000D03*
%TO.P,SW2,5*%
X198500000Y-137880000D03*
%TO.P,SW2,6*%
X198500000Y-135340000D03*
%TO.P,SW2,7*%
X198500000Y-132800000D03*
%TO.P,SW2,8*%
X198500000Y-130260000D03*
%TO.P,SW2,9*%
X198500000Y-127720000D03*
%TO.P,SW2,10*%
%TO.N,DMX_ADDR_8*%
X190880000Y-127720000D03*
%TO.P,SW2,11*%
%TO.N,DMX_ADDR_7*%
X190880000Y-130260000D03*
%TO.P,SW2,12*%
%TO.N,DMX_ADDR_6*%
X190880000Y-132800000D03*
%TO.P,SW2,13*%
%TO.N,DMX_ADDR_5*%
X190880000Y-135340000D03*
%TO.P,SW2,14*%
%TO.N,DMX_ADDR_4*%
X190880000Y-137880000D03*
%TO.P,SW2,15*%
%TO.N,DMX_ADDR_3*%
X190880000Y-140420000D03*
%TO.P,SW2,16*%
%TO.N,DMX_ADDR_2*%
X190880000Y-142960000D03*
%TO.P,SW2,17*%
%TO.N,DMX_ADDR_1*%
X190880000Y-145500000D03*
%TO.P,SW2,18*%
%TO.N,DMX_ADDR_0*%
X190880000Y-148040000D03*
%TD*%
D12*
%TO.P,SW3,1,1*%
%TO.N,PUSHY*%
X160250000Y-111750000D03*
X160250000Y-118250000D03*
%TO.P,SW3,2,2*%
%TO.N,GND*%
X155750000Y-111750000D03*
X155750000Y-118250000D03*
%TD*%
D13*
%TO.P,C16,1*%
%TO.N,+5V*%
X165250000Y-112567621D03*
D11*
%TO.P,C16,2*%
%TO.N,GND*%
X165250000Y-115067621D03*
%TD*%
D14*
%TO.P,J1,1,VBUS*%
%TO.N,+5V*%
X158000000Y-108500000D03*
D11*
%TO.P,J1,2,D-*%
%TO.N,USBDN*%
X160500000Y-108500000D03*
%TO.P,J1,3,D+*%
%TO.N,USBDP*%
X160500000Y-106500000D03*
%TO.P,J1,4,GND*%
%TO.N,GND*%
X158000000Y-106500000D03*
D15*
%TO.P,J1,5,Shield*%
X153250000Y-103640000D03*
X165250000Y-103640000D03*
%TD*%
D16*
%TO.P,Y1,1,1*%
%TO.N,Net-(U1-PA2)*%
X186000000Y-138050000D03*
%TO.P,Y1,2,2*%
%TO.N,Net-(U1-PA1)*%
X186000000Y-142950000D03*
%TD*%
D17*
%TO.P,J6,1,Pin_1*%
%TO.N,+5V*%
X152000000Y-117540000D03*
D18*
%TO.P,J6,2,Pin_2*%
%TO.N,Net-(D9-DOUT)*%
X152000000Y-115000000D03*
%TO.P,J6,3,Pin_3*%
%TO.N,GND*%
X152000000Y-112460000D03*
%TD*%
D19*
%TO.P,SW1,1,A*%
%TO.N,DMX_RX*%
X187500000Y-118825000D03*
%TO.P,SW1,2,B*%
%TO.N,RX*%
X185000000Y-118825000D03*
%TO.P,SW1,3,C*%
%TO.N,USB_RX*%
X182500000Y-118825000D03*
%TO.P,SW1,4,A*%
%TO.N,USB_TX*%
X182500000Y-122175000D03*
%TO.P,SW1,5,B*%
%TO.N,TX*%
X185000000Y-122175000D03*
%TO.P,SW1,6,C*%
%TO.N,DMX_TX*%
X187500000Y-122175000D03*
%TD*%
D20*
%TO.P,J3,1,Pin_1*%
%TO.N,DMX_A*%
X192500000Y-102975000D03*
D21*
%TO.P,J3,2,Pin_2*%
%TO.N,Net-(J2-Pin_2)*%
X195000000Y-102975000D03*
%TO.P,J3,3,Pin_3*%
%TO.N,DMX_B*%
X197500000Y-102975000D03*
%TD*%
D20*
%TO.P,J2,1,Pin_1*%
%TO.N,DMX_A*%
X181500000Y-102975000D03*
D21*
%TO.P,J2,2,Pin_2*%
%TO.N,Net-(J2-Pin_2)*%
X184000000Y-102975000D03*
%TO.P,J2,3,Pin_3*%
%TO.N,DMX_B*%
X186500000Y-102975000D03*
%TD*%
D17*
%TO.P,J4,1,Pin_1*%
%TO.N,/SWDIO*%
X187310000Y-148500000D03*
D18*
%TO.P,J4,2,Pin_2*%
%TO.N,GND*%
X184770000Y-148500000D03*
%TO.P,J4,3,Pin_3*%
%TO.N,/~{RST}*%
X182230000Y-148500000D03*
%TO.P,J4,4,Pin_4*%
%TO.N,+5V*%
X179690000Y-148500000D03*
%TD*%
D22*
%TO.P,R2,1*%
%TO.N,Net-(J5-CC1)*%
X172500000Y-110500000D03*
%TO.P,R2,2*%
%TO.N,GND*%
X172500000Y-112500000D03*
%TD*%
D23*
%TO.P,J5,A1,GND*%
%TO.N,GND*%
X170100000Y-107585000D03*
%TO.P,J5,A4,VBUS*%
%TO.N,+5V*%
X170900000Y-107585000D03*
%TO.P,J5,A5,CC1*%
%TO.N,Net-(J5-CC1)*%
X172250000Y-107585000D03*
%TO.P,J5,A6,D+*%
%TO.N,USBDP*%
X173250000Y-107585000D03*
%TO.P,J5,A7,D-*%
%TO.N,USBDN*%
X173750000Y-107585000D03*
%TO.P,J5,A8,SBU1*%
%TO.N,unconnected-(J5-SBU1-PadA8)*%
X174750000Y-107585000D03*
%TO.P,J5,A9,VBUS*%
%TO.N,+5V*%
X176100000Y-107585000D03*
%TO.P,J5,A12,GND*%
%TO.N,GND*%
X176900000Y-107585000D03*
%TO.P,J5,B1,GND*%
X176600000Y-107585000D03*
%TO.P,J5,B4,VBUS*%
%TO.N,+5V*%
X175800000Y-107585000D03*
%TO.P,J5,B5,CC2*%
%TO.N,Net-(J5-CC2)*%
X175250000Y-107585000D03*
%TO.P,J5,B6,D+*%
%TO.N,USBDP*%
X174250000Y-107585000D03*
%TO.P,J5,B7,D-*%
%TO.N,USBDN*%
X172750000Y-107585000D03*
%TO.P,J5,B8,SBU2*%
%TO.N,unconnected-(J5-SBU2-PadB8)*%
X171750000Y-107585000D03*
%TO.P,J5,B9,VBUS*%
%TO.N,+5V*%
X171200000Y-107585000D03*
%TO.P,J5,B12,GND*%
%TO.N,GND*%
X170400000Y-107585000D03*
D24*
%TO.P,J5,S1,SHIELD*%
X169180000Y-102490000D03*
D25*
X169180000Y-106670000D03*
D24*
X177820000Y-102490000D03*
D25*
X177820000Y-106670000D03*
D26*
%TO.P,J5,~*%
%TO.N,N/C*%
X170610000Y-106140000D03*
X176390000Y-106140000D03*
%TD*%
D27*
%TO.P,R3,1*%
%TO.N,GND*%
X174500000Y-112500000D03*
%TO.P,R3,2*%
%TO.N,Net-(J5-CC2)*%
X174500000Y-110500000D03*
%TD*%
D28*
%TO.N,GND*%
X189200000Y-147500000D03*
X167800000Y-112300000D03*
X155500000Y-137900000D03*
X182000000Y-140500000D03*
X157900000Y-141200000D03*
X174600000Y-138000000D03*
X177100000Y-131100000D03*
X174400000Y-128100000D03*
X158250000Y-119500000D03*
X157750000Y-116250000D03*
X178700000Y-145100000D03*
X155300000Y-147900000D03*
X155600000Y-127900000D03*
X165100000Y-128000000D03*
X182500000Y-116800000D03*
X158100000Y-131100000D03*
X194400000Y-114900000D03*
X174300000Y-148000000D03*
X167700000Y-121300000D03*
X165250000Y-118000000D03*
X177200000Y-141100000D03*
X165000000Y-138200000D03*
X164500000Y-121750000D03*
X164500000Y-148100000D03*
X188800000Y-145700000D03*
X167700000Y-141300000D03*
%TO.N,+5V*%
X153800000Y-133800000D03*
X172800000Y-143600000D03*
X163000000Y-133600000D03*
X167800000Y-110100000D03*
X172700000Y-123700000D03*
X183800000Y-110000000D03*
X153800000Y-123600000D03*
X192500000Y-110000000D03*
X183600000Y-132800000D03*
X163000000Y-143300000D03*
X172800000Y-133500000D03*
X163000000Y-123600000D03*
X153700000Y-143700000D03*
%TO.N,LED_DATA*%
X173200000Y-121500000D03*
X178946785Y-132148231D03*
%TO.N,Net-(D9-DOUT)*%
X168900000Y-124800000D03*
X169000000Y-147950000D03*
X154300000Y-119250000D03*
X168900000Y-121296504D03*
%TO.N,BLINKY*%
X189300000Y-126400000D03*
X182400000Y-126500000D03*
%TO.N,USBDN*%
X173575000Y-109015679D03*
%TO.N,USBDP*%
X174425000Y-109015679D03*
%TO.N,/SWDIO*%
X185200000Y-129400000D03*
%TO.N,/~{RST}*%
X184100979Y-129524481D03*
%TO.N,PUSHY*%
X186250000Y-128000000D03*
X181500000Y-126500000D03*
%TO.N,DMX_ADDR_1*%
X186498296Y-133691827D03*
%TO.N,DMX_ADDR_3*%
X186737175Y-132100590D03*
%TO.N,DMX_ADDR_2*%
X186513137Y-132891962D03*
%TD*%
D29*
%TO.N,GND*%
X158100000Y-103640000D02*
X165250000Y-103640000D01*
X158000000Y-106500000D02*
X158000000Y-103740000D01*
D30*
X170400000Y-108850000D02*
X170000000Y-109250000D01*
D29*
X158000000Y-103740000D02*
X158100000Y-103640000D01*
D30*
X176600000Y-109100000D02*
X177000000Y-109500000D01*
X167330000Y-106670000D02*
X169180000Y-106670000D01*
D31*
X169180000Y-106670000D02*
X169180000Y-103600000D01*
D29*
X152000000Y-104890000D02*
X153250000Y-103640000D01*
D30*
X164500000Y-121750000D02*
X155000000Y-121750000D01*
D31*
X177820000Y-106670000D02*
X177815000Y-106670000D01*
X169140000Y-103640000D02*
X169180000Y-103600000D01*
D30*
X167250000Y-107500000D02*
X167250000Y-106750000D01*
X153500000Y-120250000D02*
X153500000Y-118750000D01*
D29*
X152000000Y-112460000D02*
X152000000Y-104890000D01*
X153250000Y-103640000D02*
X158100000Y-103640000D01*
D31*
X165250000Y-103640000D02*
X169140000Y-103640000D01*
X169180000Y-103600000D02*
X169180000Y-102490000D01*
X177820000Y-106670000D02*
X177820000Y-102490000D01*
D30*
X154000000Y-118250000D02*
X155750000Y-118250000D01*
X167250000Y-106750000D02*
X167330000Y-106670000D01*
D31*
X169180000Y-106670000D02*
X169185000Y-106670000D01*
D30*
X153500000Y-118750000D02*
X154000000Y-118250000D01*
X169000000Y-109250000D02*
X167250000Y-107500000D01*
X177000000Y-109500000D02*
X177200000Y-109500000D01*
X176600000Y-107585000D02*
X176600000Y-109100000D01*
X170000000Y-109250000D02*
X169000000Y-109250000D01*
X176900000Y-107585000D02*
X176900000Y-109400000D01*
X170400000Y-107585000D02*
X170100000Y-107585000D01*
X170400000Y-107585000D02*
X170400000Y-108850000D01*
X176900000Y-109400000D02*
X177000000Y-109500000D01*
X155000000Y-121750000D02*
X153500000Y-120250000D01*
%TO.N,+5V*%
X170900000Y-109700000D02*
X170900000Y-110000000D01*
X171200000Y-107585000D02*
X171200000Y-106576719D01*
D29*
X174199000Y-146999000D02*
X178189000Y-146999000D01*
X162731379Y-110049000D02*
X165250000Y-110049000D01*
D30*
X171200000Y-106576719D02*
X171727719Y-106049000D01*
X170500000Y-110100000D02*
X170900000Y-109700000D01*
X170900000Y-107585000D02*
X170900000Y-106876719D01*
D29*
X152000000Y-117540000D02*
X152000000Y-121800000D01*
X170000000Y-123600000D02*
X170000000Y-119500000D01*
X153800000Y-123600000D02*
X153800000Y-133800000D01*
X152000000Y-117540000D02*
X153460000Y-117540000D01*
X172700000Y-123700000D02*
X172700000Y-133400000D01*
D30*
X176100000Y-106900000D02*
X176100000Y-107585000D01*
X171200000Y-109800000D02*
X170900000Y-110100000D01*
D29*
X152000000Y-121800000D02*
X153800000Y-123600000D01*
X166300000Y-123600000D02*
X170000000Y-123600000D01*
X153800000Y-143600000D02*
X153700000Y-143700000D01*
X170000000Y-119500000D02*
X174900000Y-114600000D01*
D30*
X170900000Y-107585000D02*
X171200000Y-107585000D01*
D29*
X165250000Y-110049000D02*
X165250000Y-112567621D01*
X172800000Y-143600000D02*
X172800000Y-133500000D01*
X172800000Y-133500000D02*
X177900000Y-133500000D01*
D30*
X175249000Y-106049000D02*
X175800000Y-106600000D01*
D32*
X183800000Y-112900000D02*
X183800000Y-110000000D01*
D29*
X163000000Y-123600000D02*
X166300000Y-123600000D01*
X182900000Y-133500000D02*
X183600000Y-132800000D01*
D30*
X175800000Y-107585000D02*
X175800000Y-106600000D01*
D32*
X192500000Y-110000000D02*
X183800000Y-110000000D01*
D29*
X167749000Y-110049000D02*
X167800000Y-110100000D01*
X153800000Y-123600000D02*
X163000000Y-123600000D01*
D30*
X171727719Y-106049000D02*
X175249000Y-106049000D01*
D29*
X162731379Y-110049000D02*
X158201000Y-110049000D01*
X172700000Y-133400000D02*
X172800000Y-133500000D01*
X158201000Y-110049000D02*
X158000000Y-110250000D01*
X165332379Y-112567621D02*
X165250000Y-112567621D01*
X172800000Y-143600000D02*
X172800000Y-145600000D01*
X174900000Y-114600000D02*
X182100000Y-114600000D01*
D30*
X170900000Y-110100000D02*
X170800000Y-110100000D01*
D29*
X172800000Y-145600000D02*
X174199000Y-146999000D01*
D30*
X175950000Y-106750000D02*
X176100000Y-106900000D01*
D32*
X182100000Y-114600000D02*
X183800000Y-112900000D01*
D30*
X170900000Y-110000000D02*
X170800000Y-110100000D01*
D29*
X153460000Y-117540000D02*
X158000000Y-113000000D01*
X153800000Y-133800000D02*
X153800000Y-143600000D01*
X158000000Y-108500000D02*
X158000000Y-110250000D01*
X163000000Y-123600000D02*
X163000000Y-133600000D01*
D30*
X170800000Y-110100000D02*
X170500000Y-110100000D01*
D29*
X172600000Y-123600000D02*
X172700000Y-123700000D01*
X170000000Y-123600000D02*
X172600000Y-123600000D01*
D30*
X170900000Y-107585000D02*
X170900000Y-109700000D01*
D29*
X158000000Y-110250000D02*
X158000000Y-113000000D01*
X165250000Y-110049000D02*
X167749000Y-110049000D01*
X163000000Y-133600000D02*
X163000000Y-143300000D01*
D30*
X176100000Y-107585000D02*
X175800000Y-107585000D01*
X175800000Y-106600000D02*
X175950000Y-106750000D01*
X170500000Y-110100000D02*
X167800000Y-110100000D01*
D29*
X178189000Y-146999000D02*
X179690000Y-148500000D01*
D30*
X171200000Y-107585000D02*
X171200000Y-109800000D01*
X170900000Y-106876719D02*
X171200000Y-106576719D01*
D29*
X177900000Y-133500000D02*
X182900000Y-133500000D01*
D30*
%TO.N,LED_DATA*%
X178946785Y-132148231D02*
X178877577Y-132148231D01*
X178877577Y-132148231D02*
X177900000Y-131170654D01*
X177900000Y-131170654D02*
X177900000Y-123250000D01*
X177900000Y-123250000D02*
X176150000Y-121500000D01*
X176150000Y-121500000D02*
X173200000Y-121500000D01*
%TO.N,Net-(D9-DOUT)*%
X158250000Y-120300000D02*
X167903496Y-120300000D01*
X155350000Y-120300000D02*
X154300000Y-119250000D01*
X158250000Y-120300000D02*
X155350000Y-120300000D01*
X169000000Y-146250000D02*
X171550000Y-143700000D01*
X170400000Y-124800000D02*
X168900000Y-124800000D01*
X171550000Y-143700000D02*
X171550000Y-125950000D01*
X169000000Y-147950000D02*
X169000000Y-146250000D01*
X171550000Y-125950000D02*
X170400000Y-124800000D01*
X167903496Y-120300000D02*
X168900000Y-121296504D01*
%TO.N,BLINKY*%
X189300000Y-126400000D02*
X182500000Y-126400000D01*
X182500000Y-126400000D02*
X182400000Y-126500000D01*
D33*
%TO.N,USBDN*%
X173642000Y-106500000D02*
X172858000Y-106500000D01*
D30*
X173750000Y-107585000D02*
X173750000Y-106650000D01*
D33*
X173750000Y-107585000D02*
X173750000Y-106608000D01*
X172858000Y-106500000D02*
X172750000Y-106608000D01*
X173750000Y-107585000D02*
X173774999Y-107609999D01*
X173774999Y-107609999D02*
X173774999Y-108815680D01*
X173750000Y-106608000D02*
X173642000Y-106500000D01*
X173774999Y-108815680D02*
X173575000Y-109015679D01*
X172750000Y-106608000D02*
X172750000Y-107585000D01*
%TO.N,USBDP*%
X173326057Y-109616679D02*
X172974000Y-109264622D01*
X174250000Y-107585000D02*
X174225001Y-107609999D01*
X173824000Y-109616679D02*
X173326057Y-109616679D01*
X172974000Y-108766736D02*
X173250000Y-108490736D01*
X173250000Y-108490736D02*
X173250000Y-107585000D01*
X172974000Y-109264622D02*
X172974000Y-108766736D01*
X174225001Y-108815680D02*
X174425000Y-109015679D01*
X174425000Y-109015679D02*
X173824000Y-109616679D01*
X174225001Y-107609999D02*
X174225001Y-108815680D01*
D30*
%TO.N,/SWDIO*%
X180400000Y-136200000D02*
X180400000Y-145300000D01*
X186800000Y-146900000D02*
X187310000Y-147410000D01*
X180400000Y-145300000D02*
X182000000Y-146900000D01*
X181300000Y-135300000D02*
X180400000Y-136200000D01*
X183900000Y-135300000D02*
X181300000Y-135300000D01*
X187310000Y-147410000D02*
X187310000Y-148500000D01*
X185200000Y-129400000D02*
X185200000Y-134000000D01*
X182000000Y-146900000D02*
X186800000Y-146900000D01*
X185200000Y-134000000D02*
X183900000Y-135300000D01*
%TO.N,/~{RST}*%
X179800000Y-135800000D02*
X179800000Y-146070000D01*
X183500000Y-134700000D02*
X180900000Y-134700000D01*
X180900000Y-134700000D02*
X179800000Y-135800000D01*
X184100979Y-129524481D02*
X184500000Y-129923502D01*
X184500000Y-133700000D02*
X183500000Y-134700000D01*
X184500000Y-129923502D02*
X184500000Y-133700000D01*
X179800000Y-146070000D02*
X182230000Y-148500000D01*
%TO.N,Net-(J5-CC2)*%
X174500000Y-110500000D02*
X174500000Y-109900000D01*
X174400000Y-110500000D02*
X174000000Y-110100000D01*
X175250000Y-109150000D02*
X175250000Y-107585000D01*
X174500000Y-109900000D02*
X175250000Y-109150000D01*
X174500000Y-110500000D02*
X174400000Y-110500000D01*
%TO.N,Net-(J5-CC1)*%
X172700000Y-110500000D02*
X173074116Y-110125884D01*
X172250000Y-109350000D02*
X172250000Y-107585000D01*
X172500000Y-110500000D02*
X172700000Y-110500000D01*
X172500000Y-110500000D02*
X172500000Y-109600000D01*
X172500000Y-109600000D02*
X172250000Y-109350000D01*
%TO.N,PUSHY*%
X160250000Y-111750000D02*
X160250000Y-118250000D01*
X181500000Y-126500000D02*
X181500000Y-127000000D01*
X181500000Y-127000000D02*
X182000000Y-127500000D01*
X182000000Y-127500000D02*
X185750000Y-127500000D01*
X185750000Y-127500000D02*
X186250000Y-128000000D01*
%TO.N,DMX_ADDR_1*%
X188799000Y-143419000D02*
X190880000Y-145500000D01*
X188799000Y-135199000D02*
X188799000Y-143419000D01*
X186498296Y-133691827D02*
X187291827Y-133691827D01*
X187291827Y-133691827D02*
X188799000Y-135199000D01*
%TO.N,DMX_ADDR_3*%
X190100000Y-131600000D02*
X187237765Y-131600000D01*
X190880000Y-140420000D02*
X191980000Y-140420000D01*
X190100000Y-131600000D02*
X191800000Y-131600000D01*
X187237765Y-131600000D02*
X187200000Y-131600000D01*
X186737175Y-132100590D02*
X187237765Y-131600000D01*
X193400000Y-139000000D02*
X191980000Y-140420000D01*
X193400000Y-133200000D02*
X193400000Y-139000000D01*
X187200000Y-131637765D02*
X186737175Y-132100590D01*
X191800000Y-131600000D02*
X193400000Y-133200000D01*
X187200000Y-131600000D02*
X187200000Y-131637765D01*
%TO.N,DMX_ADDR_2*%
X190880000Y-142960000D02*
X190760000Y-142960000D01*
X189400000Y-141600000D02*
X189400000Y-134100000D01*
X189400000Y-134100000D02*
X188191962Y-132891962D01*
X188191962Y-132891962D02*
X186513137Y-132891962D01*
X190760000Y-142960000D02*
X189400000Y-141600000D01*
D29*
%TO.N,Net-(J2-Pin_2)*%
X184500000Y-105300000D02*
X194400000Y-105300000D01*
X184000000Y-102975000D02*
X184000000Y-104800000D01*
X195000000Y-104700000D02*
X195000000Y-102975000D01*
X194400000Y-105300000D02*
X195000000Y-104700000D01*
X184000000Y-104800000D02*
X184500000Y-105300000D01*
%TD*%
%TA.AperFunction,Conductor*%
%TO.N,GND*%
G36*
X199642539Y-100320185D02*
G01*
X199688294Y-100372989D01*
X199699500Y-100424500D01*
X199699500Y-126869380D01*
X199679815Y-126936419D01*
X199627011Y-126982174D01*
X199583726Y-126989824D01*
X198900000Y-127673551D01*
X198900000Y-127667339D01*
X198872741Y-127565606D01*
X198820080Y-127474394D01*
X198745606Y-127399920D01*
X198654394Y-127347259D01*
X198552661Y-127320000D01*
X198546446Y-127320000D01*
X199225922Y-126640524D01*
X199225921Y-126640523D01*
X199181359Y-126608147D01*
X199181350Y-126608141D01*
X198999031Y-126515244D01*
X198804417Y-126452009D01*
X198602317Y-126420000D01*
X198397683Y-126420000D01*
X198195582Y-126452009D01*
X198000968Y-126515244D01*
X197818644Y-126608143D01*
X197774077Y-126640523D01*
X197774077Y-126640524D01*
X198453554Y-127320000D01*
X198447339Y-127320000D01*
X198345606Y-127347259D01*
X198254394Y-127399920D01*
X198179920Y-127474394D01*
X198127259Y-127565606D01*
X198100000Y-127667339D01*
X198100000Y-127673553D01*
X197420524Y-126994077D01*
X197420523Y-126994077D01*
X197388143Y-127038644D01*
X197295244Y-127220968D01*
X197232009Y-127415582D01*
X197200000Y-127617682D01*
X197200000Y-127822317D01*
X197232009Y-128024417D01*
X197295244Y-128219031D01*
X197388141Y-128401350D01*
X197388147Y-128401359D01*
X197420523Y-128445921D01*
X197420524Y-128445922D01*
X198100000Y-127766446D01*
X198100000Y-127772661D01*
X198127259Y-127874394D01*
X198179920Y-127965606D01*
X198254394Y-128040080D01*
X198345606Y-128092741D01*
X198447339Y-128120000D01*
X198453553Y-128120000D01*
X197774076Y-128799474D01*
X197818650Y-128831859D01*
X197912180Y-128879515D01*
X197962976Y-128927489D01*
X197979771Y-128995310D01*
X197957234Y-129061445D01*
X197912180Y-129100485D01*
X197818644Y-129148143D01*
X197774077Y-129180523D01*
X197774077Y-129180524D01*
X198453554Y-129860000D01*
X198447339Y-129860000D01*
X198345606Y-129887259D01*
X198254394Y-129939920D01*
X198179920Y-130014394D01*
X198127259Y-130105606D01*
X198100000Y-130207339D01*
X198100000Y-130213553D01*
X197420524Y-129534077D01*
X197420523Y-129534077D01*
X197388143Y-129578644D01*
X197295244Y-129760968D01*
X197232009Y-129955582D01*
X197200000Y-130157682D01*
X197200000Y-130362317D01*
X197232009Y-130564417D01*
X197295244Y-130759031D01*
X197388141Y-130941350D01*
X197388147Y-130941359D01*
X197420523Y-130985921D01*
X197420524Y-130985922D01*
X198100000Y-130306446D01*
X198100000Y-130312661D01*
X198127259Y-130414394D01*
X198179920Y-130505606D01*
X198254394Y-130580080D01*
X198345606Y-130632741D01*
X198447339Y-130660000D01*
X198453553Y-130660000D01*
X197774076Y-131339474D01*
X197818650Y-131371859D01*
X197912180Y-131419515D01*
X197962976Y-131467489D01*
X197979771Y-131535310D01*
X197957234Y-131601445D01*
X197912180Y-131640485D01*
X197818644Y-131688143D01*
X197774077Y-131720523D01*
X197774077Y-131720524D01*
X198453554Y-132400000D01*
X198447339Y-132400000D01*
X198345606Y-132427259D01*
X198254394Y-132479920D01*
X198179920Y-132554394D01*
X198127259Y-132645606D01*
X198100000Y-132747339D01*
X198100000Y-132753553D01*
X197420524Y-132074077D01*
X197420523Y-132074077D01*
X197388143Y-132118644D01*
X197295244Y-132300968D01*
X197232009Y-132495582D01*
X197200000Y-132697682D01*
X197200000Y-132902317D01*
X197232009Y-133104417D01*
X197295244Y-133299031D01*
X197388141Y-133481350D01*
X197388147Y-133481359D01*
X197420523Y-133525921D01*
X197420524Y-133525922D01*
X198100000Y-132846446D01*
X198100000Y-132852661D01*
X198127259Y-132954394D01*
X198179920Y-133045606D01*
X198254394Y-133120080D01*
X198345606Y-133172741D01*
X198447339Y-133200000D01*
X198453553Y-133200000D01*
X197774076Y-133879474D01*
X197818650Y-133911859D01*
X197912180Y-133959515D01*
X197962976Y-134007489D01*
X197979771Y-134075310D01*
X197957234Y-134141445D01*
X197912180Y-134180485D01*
X197818644Y-134228143D01*
X197774077Y-134260523D01*
X197774077Y-134260524D01*
X198453554Y-134940000D01*
X198447339Y-134940000D01*
X198345606Y-134967259D01*
X198254394Y-135019920D01*
X198179920Y-135094394D01*
X198127259Y-135185606D01*
X198100000Y-135287339D01*
X198100000Y-135293553D01*
X197420524Y-134614077D01*
X197420523Y-134614077D01*
X197388143Y-134658644D01*
X197295244Y-134840968D01*
X197232009Y-135035582D01*
X197200000Y-135237682D01*
X197200000Y-135442317D01*
X197232009Y-135644417D01*
X197295244Y-135839031D01*
X197388141Y-136021350D01*
X197388147Y-136021359D01*
X197420523Y-136065921D01*
X197420524Y-136065922D01*
X198100000Y-135386446D01*
X198100000Y-135392661D01*
X198127259Y-135494394D01*
X198179920Y-135585606D01*
X198254394Y-135660080D01*
X198345606Y-135712741D01*
X198447339Y-135740000D01*
X198453553Y-135740000D01*
X197774076Y-136419474D01*
X197818650Y-136451859D01*
X197912180Y-136499515D01*
X197962976Y-136547489D01*
X197979771Y-136615310D01*
X197957234Y-136681445D01*
X197912180Y-136720485D01*
X197818644Y-136768143D01*
X197774077Y-136800523D01*
X197774077Y-136800524D01*
X198453554Y-137480000D01*
X198447339Y-137480000D01*
X198345606Y-137507259D01*
X198254394Y-137559920D01*
X198179920Y-137634394D01*
X198127259Y-137725606D01*
X198100000Y-137827339D01*
X198100000Y-137833553D01*
X197420524Y-137154077D01*
X197420523Y-137154077D01*
X197388143Y-137198644D01*
X197295244Y-137380968D01*
X197232009Y-137575582D01*
X197200000Y-137777682D01*
X197200000Y-137982317D01*
X197232009Y-138184417D01*
X197295244Y-138379031D01*
X197388141Y-138561350D01*
X197388147Y-138561359D01*
X197420523Y-138605921D01*
X197420524Y-138605922D01*
X198100000Y-137926446D01*
X198100000Y-137932661D01*
X198127259Y-138034394D01*
X198179920Y-138125606D01*
X198254394Y-138200080D01*
X198345606Y-138252741D01*
X198447339Y-138280000D01*
X198453553Y-138280000D01*
X197774076Y-138959474D01*
X197818650Y-138991859D01*
X197912180Y-139039515D01*
X197962976Y-139087489D01*
X197979771Y-139155310D01*
X197957234Y-139221445D01*
X197912180Y-139260485D01*
X197818644Y-139308143D01*
X197774077Y-139340523D01*
X197774077Y-139340524D01*
X198453554Y-140020000D01*
X198447339Y-140020000D01*
X198345606Y-140047259D01*
X198254394Y-140099920D01*
X198179920Y-140174394D01*
X198127259Y-140265606D01*
X198100000Y-140367339D01*
X198100000Y-140373553D01*
X197420524Y-139694077D01*
X197420523Y-139694077D01*
X197388143Y-139738644D01*
X197295244Y-139920968D01*
X197232009Y-140115582D01*
X197200000Y-140317682D01*
X197200000Y-140522317D01*
X197232009Y-140724417D01*
X197295244Y-140919031D01*
X197388141Y-141101350D01*
X197388147Y-141101359D01*
X197420523Y-141145921D01*
X197420524Y-141145922D01*
X198100000Y-140466446D01*
X198100000Y-140472661D01*
X198127259Y-140574394D01*
X198179920Y-140665606D01*
X198254394Y-140740080D01*
X198345606Y-140792741D01*
X198447339Y-140820000D01*
X198453553Y-140820000D01*
X197774076Y-141499474D01*
X197818650Y-141531859D01*
X197912180Y-141579515D01*
X197962976Y-141627489D01*
X197979771Y-141695310D01*
X197957234Y-141761445D01*
X197912180Y-141800485D01*
X197818644Y-141848143D01*
X197774077Y-141880523D01*
X197774077Y-141880524D01*
X198453554Y-142560000D01*
X198447339Y-142560000D01*
X198345606Y-142587259D01*
X198254394Y-142639920D01*
X198179920Y-142714394D01*
X198127259Y-142805606D01*
X198100000Y-142907339D01*
X198100000Y-142913553D01*
X197420524Y-142234077D01*
X197420523Y-142234077D01*
X197388143Y-142278644D01*
X197295244Y-142460968D01*
X197232009Y-142655582D01*
X197200000Y-142857682D01*
X197200000Y-143062317D01*
X197232009Y-143264417D01*
X197295244Y-143459031D01*
X197388141Y-143641350D01*
X197388147Y-143641359D01*
X197420523Y-143685921D01*
X197420524Y-143685922D01*
X198100000Y-143006446D01*
X198100000Y-143012661D01*
X198127259Y-143114394D01*
X198179920Y-143205606D01*
X198254394Y-143280080D01*
X198345606Y-143332741D01*
X198447339Y-143360000D01*
X198453553Y-143360000D01*
X197774076Y-144039474D01*
X197818650Y-144071859D01*
X197912180Y-144119515D01*
X197962976Y-144167489D01*
X197979771Y-144235310D01*
X197957234Y-144301445D01*
X197912180Y-144340485D01*
X197818644Y-144388143D01*
X197774077Y-144420523D01*
X197774077Y-144420524D01*
X198453554Y-145100000D01*
X198447339Y-145100000D01*
X198345606Y-145127259D01*
X198254394Y-145179920D01*
X198179920Y-145254394D01*
X198127259Y-145345606D01*
X198100000Y-145447339D01*
X198100000Y-145453553D01*
X197420524Y-144774077D01*
X197420523Y-144774077D01*
X197388143Y-144818644D01*
X197295244Y-145000968D01*
X197232009Y-145195582D01*
X197200000Y-145397682D01*
X197200000Y-145602317D01*
X197232009Y-145804417D01*
X197295244Y-145999031D01*
X197388141Y-146181350D01*
X197388147Y-146181359D01*
X197420523Y-146225921D01*
X197420524Y-146225922D01*
X198100000Y-145546446D01*
X198100000Y-145552661D01*
X198127259Y-145654394D01*
X198179920Y-145745606D01*
X198254394Y-145820080D01*
X198345606Y-145872741D01*
X198447339Y-145900000D01*
X198453553Y-145900000D01*
X197774076Y-146579474D01*
X197775403Y-146596333D01*
X197790198Y-146615519D01*
X197796177Y-146685132D01*
X197763572Y-146746927D01*
X197713652Y-146778212D01*
X197630886Y-146805638D01*
X197630875Y-146805643D01*
X197481654Y-146897684D01*
X197357684Y-147021654D01*
X197265643Y-147170875D01*
X197265641Y-147170880D01*
X197210494Y-147337302D01*
X197210493Y-147337309D01*
X197200000Y-147440013D01*
X197200000Y-147790000D01*
X198184314Y-147790000D01*
X198179920Y-147794394D01*
X198127259Y-147885606D01*
X198100000Y-147987339D01*
X198100000Y-148092661D01*
X198127259Y-148194394D01*
X198179920Y-148285606D01*
X198184314Y-148290000D01*
X197200001Y-148290000D01*
X197200001Y-148639986D01*
X197210494Y-148742697D01*
X197265641Y-148909119D01*
X197265643Y-148909124D01*
X197357684Y-149058345D01*
X197481654Y-149182315D01*
X197630875Y-149274356D01*
X197630880Y-149274358D01*
X197797302Y-149329505D01*
X197797309Y-149329506D01*
X197900019Y-149339999D01*
X198249999Y-149339999D01*
X198250000Y-149339998D01*
X198250000Y-148355686D01*
X198254394Y-148360080D01*
X198345606Y-148412741D01*
X198447339Y-148440000D01*
X198552661Y-148440000D01*
X198654394Y-148412741D01*
X198745606Y-148360080D01*
X198750000Y-148355686D01*
X198750000Y-149339999D01*
X199099972Y-149339999D01*
X199099986Y-149339998D01*
X199202697Y-149329505D01*
X199369119Y-149274358D01*
X199369130Y-149274353D01*
X199510403Y-149187215D01*
X199577795Y-149168774D01*
X199644459Y-149189696D01*
X199689229Y-149243338D01*
X199699500Y-149292753D01*
X199699500Y-149575500D01*
X199679815Y-149642539D01*
X199627011Y-149688294D01*
X199575500Y-149699500D01*
X188742418Y-149699500D01*
X188675379Y-149679815D01*
X188629624Y-149627011D01*
X188619680Y-149557853D01*
X188626236Y-149532167D01*
X188654091Y-149457482D01*
X188660500Y-149397873D01*
X188660499Y-147602128D01*
X188654091Y-147542517D01*
X188642747Y-147512103D01*
X188603797Y-147407671D01*
X188603793Y-147407664D01*
X188517547Y-147292455D01*
X188517544Y-147292452D01*
X188402335Y-147206206D01*
X188402328Y-147206202D01*
X188267482Y-147155908D01*
X188267483Y-147155908D01*
X188207883Y-147149501D01*
X188207881Y-147149500D01*
X188207873Y-147149500D01*
X188207865Y-147149500D01*
X187984568Y-147149500D01*
X187976950Y-147147263D01*
X187969115Y-147148533D01*
X187943905Y-147137559D01*
X187917529Y-147129815D01*
X187910699Y-147123106D01*
X187905051Y-147120648D01*
X187881466Y-147094391D01*
X187850491Y-147048034D01*
X187815277Y-146995331D01*
X187518501Y-146698555D01*
X187214674Y-146394727D01*
X187214673Y-146394726D01*
X187214669Y-146394723D01*
X187108127Y-146323535D01*
X186989744Y-146274499D01*
X186989738Y-146274497D01*
X186864071Y-146249500D01*
X186864069Y-146249500D01*
X182320808Y-146249500D01*
X182253769Y-146229815D01*
X182233127Y-146213181D01*
X181086819Y-145066873D01*
X181053334Y-145005550D01*
X181050500Y-144979192D01*
X181050500Y-142820097D01*
X184349500Y-142820097D01*
X184349500Y-143079902D01*
X184390140Y-143336493D01*
X184470422Y-143583576D01*
X184522571Y-143685922D01*
X184586107Y-143810618D01*
X184588368Y-143815054D01*
X184741066Y-144025225D01*
X184741069Y-144025229D01*
X184924771Y-144208931D01*
X185134949Y-144361634D01*
X185250525Y-144420523D01*
X185366423Y-144479577D01*
X185366425Y-144479577D01*
X185366428Y-144479579D01*
X185613507Y-144559860D01*
X185745706Y-144580797D01*
X185870098Y-144600500D01*
X185870103Y-144600500D01*
X186129902Y-144600500D01*
X186245902Y-144582127D01*
X186386493Y-144559860D01*
X186633572Y-144479579D01*
X186865051Y-144361634D01*
X187075229Y-144208931D01*
X187258931Y-144025229D01*
X187411634Y-143815051D01*
X187529579Y-143583572D01*
X187609860Y-143336493D01*
X187639468Y-143149554D01*
X187650500Y-143079902D01*
X187650500Y-142820097D01*
X187624443Y-142655582D01*
X187609860Y-142563507D01*
X187529579Y-142316428D01*
X187529577Y-142316425D01*
X187529577Y-142316423D01*
X187481554Y-142222174D01*
X187411634Y-142084949D01*
X187258931Y-141874771D01*
X187075229Y-141691069D01*
X187073758Y-141690000D01*
X186865054Y-141538368D01*
X186865053Y-141538367D01*
X186865051Y-141538366D01*
X186788722Y-141499474D01*
X186633576Y-141420422D01*
X186386493Y-141340140D01*
X186129902Y-141299500D01*
X186129897Y-141299500D01*
X185870103Y-141299500D01*
X185870098Y-141299500D01*
X185613506Y-141340140D01*
X185366423Y-141420422D01*
X185134945Y-141538368D01*
X184924774Y-141691066D01*
X184924768Y-141691071D01*
X184741071Y-141874768D01*
X184741066Y-141874774D01*
X184588368Y-142084945D01*
X184470422Y-142316423D01*
X184390140Y-142563506D01*
X184349500Y-142820097D01*
X181050500Y-142820097D01*
X181050500Y-138179900D01*
X184349499Y-138179900D01*
X184390140Y-138436493D01*
X184470422Y-138683576D01*
X184588368Y-138915054D01*
X184644479Y-138992284D01*
X184741069Y-139125229D01*
X184924771Y-139308931D01*
X185134949Y-139461634D01*
X185271585Y-139531254D01*
X185366423Y-139579577D01*
X185366425Y-139579577D01*
X185366428Y-139579579D01*
X185613507Y-139659860D01*
X185745706Y-139680797D01*
X185870098Y-139700500D01*
X185870103Y-139700500D01*
X186129902Y-139700500D01*
X186245605Y-139682174D01*
X186386493Y-139659860D01*
X186633572Y-139579579D01*
X186865051Y-139461634D01*
X187075229Y-139308931D01*
X187258931Y-139125229D01*
X187411634Y-138915051D01*
X187529579Y-138683572D01*
X187609860Y-138436493D01*
X187642002Y-138233553D01*
X187650500Y-138179900D01*
X187650500Y-137920097D01*
X187619695Y-137725606D01*
X187609860Y-137663507D01*
X187529579Y-137416428D01*
X187529577Y-137416425D01*
X187529577Y-137416423D01*
X187486787Y-137332445D01*
X187411634Y-137184949D01*
X187258931Y-136974771D01*
X187075229Y-136791069D01*
X186865051Y-136638366D01*
X186792764Y-136601534D01*
X186633576Y-136520422D01*
X186386493Y-136440140D01*
X186129902Y-136399500D01*
X186129897Y-136399500D01*
X185870103Y-136399500D01*
X185870098Y-136399500D01*
X185613506Y-136440140D01*
X185366423Y-136520422D01*
X185134945Y-136638368D01*
X184924774Y-136791066D01*
X184924768Y-136791071D01*
X184741071Y-136974768D01*
X184741066Y-136974774D01*
X184588368Y-137184945D01*
X184470422Y-137416423D01*
X184390140Y-137663506D01*
X184349500Y-137920097D01*
X184349500Y-137920103D01*
X184349500Y-138179897D01*
X184349500Y-138179900D01*
X184349499Y-138179900D01*
X181050500Y-138179900D01*
X181050500Y-136520807D01*
X181070185Y-136453768D01*
X181086819Y-136433126D01*
X181533126Y-135986819D01*
X181594449Y-135953334D01*
X181620807Y-135950500D01*
X183964071Y-135950500D01*
X184048615Y-135933682D01*
X184089744Y-135925501D01*
X184208127Y-135876465D01*
X184263870Y-135839219D01*
X184314669Y-135805277D01*
X185705277Y-134414669D01*
X185775055Y-134310236D01*
X185828665Y-134265433D01*
X185897990Y-134256724D01*
X185961017Y-134286878D01*
X185965837Y-134291447D01*
X185988003Y-134313613D01*
X185988007Y-134313616D01*
X186119110Y-134401217D01*
X186119123Y-134401224D01*
X186264794Y-134461562D01*
X186264799Y-134461564D01*
X186404639Y-134489380D01*
X186419449Y-134492326D01*
X186419452Y-134492327D01*
X186419454Y-134492327D01*
X186577140Y-134492327D01*
X186577141Y-134492326D01*
X186731793Y-134461564D01*
X186877475Y-134401221D01*
X186915030Y-134376127D01*
X186981705Y-134355249D01*
X187049086Y-134373732D01*
X187071602Y-134391548D01*
X188112181Y-135432127D01*
X188145666Y-135493450D01*
X188148500Y-135519808D01*
X188148500Y-143483069D01*
X188148500Y-143483071D01*
X188148499Y-143483071D01*
X188172050Y-143601460D01*
X188172051Y-143601464D01*
X188173498Y-143608742D01*
X188211864Y-143701364D01*
X188222535Y-143727127D01*
X188253792Y-143773907D01*
X188293726Y-143833673D01*
X188293727Y-143833674D01*
X189572862Y-145112808D01*
X189606347Y-145174131D01*
X189607654Y-145219886D01*
X189579500Y-145397647D01*
X189579500Y-145602351D01*
X189611522Y-145804534D01*
X189674781Y-145999223D01*
X189712835Y-146073907D01*
X189767585Y-146181359D01*
X189767715Y-146181613D01*
X189888028Y-146347213D01*
X190032786Y-146491971D01*
X190176431Y-146596333D01*
X190198390Y-146612287D01*
X190289840Y-146658883D01*
X190291080Y-146659515D01*
X190341876Y-146707490D01*
X190358671Y-146775311D01*
X190336134Y-146841446D01*
X190291080Y-146880485D01*
X190198386Y-146927715D01*
X190032786Y-147048028D01*
X189888028Y-147192786D01*
X189767715Y-147358386D01*
X189674781Y-147540776D01*
X189611522Y-147735465D01*
X189579500Y-147937647D01*
X189579500Y-148142351D01*
X189611522Y-148344534D01*
X189674781Y-148539223D01*
X189726123Y-148639986D01*
X189766759Y-148719738D01*
X189767715Y-148721613D01*
X189888028Y-148887213D01*
X190032786Y-149031971D01*
X190168968Y-149130911D01*
X190198390Y-149152287D01*
X190314607Y-149211503D01*
X190380776Y-149245218D01*
X190380778Y-149245218D01*
X190380781Y-149245220D01*
X190470459Y-149274358D01*
X190575465Y-149308477D01*
X190676557Y-149324488D01*
X190777648Y-149340500D01*
X190777649Y-149340500D01*
X190982351Y-149340500D01*
X190982352Y-149340500D01*
X191184534Y-149308477D01*
X191379219Y-149245220D01*
X191561610Y-149152287D01*
X191654590Y-149084732D01*
X191727213Y-149031971D01*
X191727215Y-149031968D01*
X191727219Y-149031966D01*
X191871966Y-148887219D01*
X191871968Y-148887215D01*
X191871971Y-148887213D01*
X191971298Y-148750499D01*
X191992287Y-148721610D01*
X192085220Y-148539219D01*
X192148477Y-148344534D01*
X192154421Y-148307007D01*
X192168322Y-148219240D01*
X192173942Y-148183757D01*
X192180500Y-148142352D01*
X192180500Y-147937648D01*
X192176755Y-147914000D01*
X192148477Y-147735465D01*
X192105153Y-147602128D01*
X192085220Y-147540781D01*
X192085218Y-147540778D01*
X192085218Y-147540776D01*
X192037577Y-147447276D01*
X191992287Y-147358390D01*
X191944383Y-147292455D01*
X191871971Y-147192786D01*
X191727213Y-147048028D01*
X191561614Y-146927715D01*
X191526815Y-146909984D01*
X191468917Y-146880483D01*
X191418123Y-146832511D01*
X191401328Y-146764690D01*
X191423865Y-146698555D01*
X191468917Y-146659516D01*
X191561610Y-146612287D01*
X191606774Y-146579474D01*
X191727213Y-146491971D01*
X191727215Y-146491968D01*
X191727219Y-146491966D01*
X191871966Y-146347219D01*
X191871968Y-146347215D01*
X191871971Y-146347213D01*
X191945802Y-146245591D01*
X191992287Y-146181610D01*
X192085220Y-145999219D01*
X192148477Y-145804534D01*
X192180500Y-145602352D01*
X192180500Y-145397648D01*
X192172257Y-145345606D01*
X192148477Y-145195465D01*
X192117458Y-145100000D01*
X192085220Y-145000781D01*
X192085218Y-145000778D01*
X192085218Y-145000776D01*
X192051503Y-144934607D01*
X191992287Y-144818390D01*
X191951444Y-144762174D01*
X191871971Y-144652786D01*
X191727213Y-144508028D01*
X191561614Y-144387715D01*
X191540857Y-144377139D01*
X191468917Y-144340483D01*
X191418123Y-144292511D01*
X191401328Y-144224690D01*
X191423865Y-144158555D01*
X191468917Y-144119516D01*
X191561610Y-144072287D01*
X191626378Y-144025231D01*
X191727213Y-143951971D01*
X191727215Y-143951968D01*
X191727219Y-143951966D01*
X191871966Y-143807219D01*
X191871968Y-143807215D01*
X191871971Y-143807213D01*
X191930157Y-143727125D01*
X191992287Y-143641610D01*
X192085220Y-143459219D01*
X192148477Y-143264534D01*
X192180500Y-143062352D01*
X192180500Y-142857648D01*
X192158869Y-142721077D01*
X192148477Y-142655465D01*
X192117458Y-142560000D01*
X192085220Y-142460781D01*
X192085218Y-142460778D01*
X192085218Y-142460776D01*
X192011668Y-142316428D01*
X191992287Y-142278390D01*
X191951444Y-142222174D01*
X191871971Y-142112786D01*
X191727213Y-141968028D01*
X191561614Y-141847715D01*
X191555006Y-141844348D01*
X191468917Y-141800483D01*
X191418123Y-141752511D01*
X191401328Y-141684690D01*
X191423865Y-141618555D01*
X191468917Y-141579516D01*
X191561610Y-141532287D01*
X191606774Y-141499474D01*
X191727213Y-141411971D01*
X191727215Y-141411968D01*
X191727219Y-141411966D01*
X191871966Y-141267219D01*
X191981434Y-141116546D01*
X192036761Y-141073882D01*
X192057555Y-141067817D01*
X192169744Y-141045501D01*
X192288127Y-140996465D01*
X192290836Y-140994654D01*
X192291772Y-140994030D01*
X192326991Y-140970497D01*
X192394669Y-140925277D01*
X192654340Y-140665606D01*
X193094812Y-140225135D01*
X193905271Y-139414675D01*
X193905276Y-139414670D01*
X193954819Y-139340523D01*
X193976464Y-139308129D01*
X193976465Y-139308127D01*
X194025501Y-139189744D01*
X194025501Y-139189740D01*
X194025503Y-139189737D01*
X194033104Y-139151524D01*
X194033104Y-139151523D01*
X194050500Y-139064071D01*
X194050500Y-133135928D01*
X194025502Y-133010261D01*
X194025501Y-133010260D01*
X194025501Y-133010256D01*
X193976465Y-132891873D01*
X193964856Y-132874499D01*
X193905277Y-132785331D01*
X193905275Y-132785329D01*
X193905273Y-132785326D01*
X192214673Y-131094726D01*
X192108126Y-131023534D01*
X192101939Y-131020972D01*
X192047535Y-130977131D01*
X192025469Y-130910837D01*
X192038905Y-130850116D01*
X192085220Y-130759219D01*
X192148477Y-130564534D01*
X192180500Y-130362352D01*
X192180500Y-130157648D01*
X192161038Y-130034769D01*
X192148477Y-129955465D01*
X192091198Y-129779179D01*
X192085220Y-129760781D01*
X192085218Y-129760778D01*
X192085218Y-129760776D01*
X192051503Y-129694607D01*
X191992287Y-129578390D01*
X191919965Y-129478846D01*
X191871971Y-129412786D01*
X191727213Y-129268028D01*
X191561614Y-129147715D01*
X191555006Y-129144348D01*
X191468917Y-129100483D01*
X191418123Y-129052511D01*
X191401328Y-128984690D01*
X191423865Y-128918555D01*
X191468917Y-128879516D01*
X191561610Y-128832287D01*
X191589128Y-128812294D01*
X191727213Y-128711971D01*
X191727215Y-128711968D01*
X191727219Y-128711966D01*
X191871966Y-128567219D01*
X191871968Y-128567215D01*
X191871971Y-128567213D01*
X191924732Y-128494590D01*
X191992287Y-128401610D01*
X192085220Y-128219219D01*
X192148477Y-128024534D01*
X192180500Y-127822352D01*
X192180500Y-127617648D01*
X192172257Y-127565606D01*
X192148477Y-127415465D01*
X192113600Y-127308125D01*
X192085220Y-127220781D01*
X192085218Y-127220778D01*
X192085218Y-127220776D01*
X192008487Y-127070185D01*
X191992287Y-127038390D01*
X191960092Y-126994077D01*
X191871971Y-126872786D01*
X191727213Y-126728028D01*
X191561613Y-126607715D01*
X191561612Y-126607714D01*
X191561610Y-126607713D01*
X191479204Y-126565725D01*
X191379223Y-126514781D01*
X191184534Y-126451522D01*
X191009995Y-126423878D01*
X190982352Y-126419500D01*
X190777648Y-126419500D01*
X190753329Y-126423351D01*
X190575465Y-126451522D01*
X190440925Y-126495238D01*
X190380781Y-126514780D01*
X190380778Y-126514781D01*
X190380776Y-126514782D01*
X190280795Y-126565725D01*
X190212125Y-126578621D01*
X190147385Y-126552344D01*
X190107128Y-126495238D01*
X190100500Y-126455240D01*
X190100500Y-126321155D01*
X190100499Y-126321153D01*
X190080268Y-126219446D01*
X190069737Y-126166503D01*
X190050812Y-126120814D01*
X190009397Y-126020827D01*
X190009390Y-126020814D01*
X189921789Y-125889711D01*
X189921786Y-125889707D01*
X189810292Y-125778213D01*
X189810288Y-125778210D01*
X189679185Y-125690609D01*
X189679172Y-125690602D01*
X189533501Y-125630264D01*
X189533489Y-125630261D01*
X189378845Y-125599500D01*
X189378842Y-125599500D01*
X189221158Y-125599500D01*
X189221155Y-125599500D01*
X189066510Y-125630261D01*
X189066498Y-125630264D01*
X188920827Y-125690602D01*
X188920820Y-125690606D01*
X188907510Y-125699500D01*
X188863955Y-125728602D01*
X188797279Y-125749480D01*
X188795065Y-125749500D01*
X182704604Y-125749500D01*
X182657155Y-125740062D01*
X182633497Y-125730263D01*
X182633493Y-125730262D01*
X182633488Y-125730260D01*
X182478845Y-125699500D01*
X182478842Y-125699500D01*
X182321158Y-125699500D01*
X182321155Y-125699500D01*
X182166510Y-125730261D01*
X182166498Y-125730264D01*
X182020822Y-125790604D01*
X182020820Y-125790605D01*
X182018885Y-125791899D01*
X182017717Y-125792264D01*
X182015451Y-125793476D01*
X182015221Y-125793045D01*
X181952206Y-125812773D01*
X181884827Y-125794285D01*
X181881115Y-125791899D01*
X181879179Y-125790605D01*
X181879177Y-125790604D01*
X181733501Y-125730264D01*
X181733489Y-125730261D01*
X181578845Y-125699500D01*
X181578842Y-125699500D01*
X181421158Y-125699500D01*
X181421155Y-125699500D01*
X181266510Y-125730261D01*
X181266498Y-125730264D01*
X181120827Y-125790602D01*
X181120814Y-125790609D01*
X180989711Y-125878210D01*
X180989707Y-125878213D01*
X180878213Y-125989707D01*
X180878210Y-125989711D01*
X180790609Y-126120814D01*
X180790602Y-126120827D01*
X180730264Y-126266498D01*
X180730261Y-126266510D01*
X180699500Y-126421153D01*
X180699500Y-126578846D01*
X180730261Y-126733489D01*
X180730264Y-126733501D01*
X180790602Y-126879172D01*
X180790606Y-126879179D01*
X180828602Y-126936045D01*
X180833270Y-126948755D01*
X180839692Y-126956600D01*
X180844065Y-126978152D01*
X180848684Y-126990730D01*
X180849500Y-126997806D01*
X180849500Y-127064069D01*
X180866693Y-127150500D01*
X180870520Y-127169738D01*
X180874499Y-127189744D01*
X180917028Y-127292419D01*
X180923535Y-127308127D01*
X180994723Y-127414669D01*
X180994726Y-127414673D01*
X181585325Y-128005272D01*
X181585332Y-128005278D01*
X181673320Y-128064069D01*
X181673321Y-128064069D01*
X181691873Y-128076465D01*
X181810256Y-128125501D01*
X181810260Y-128125501D01*
X181810261Y-128125502D01*
X181935928Y-128150500D01*
X181935931Y-128150500D01*
X185363122Y-128150500D01*
X185430161Y-128170185D01*
X185475916Y-128222989D01*
X185477784Y-128227930D01*
X185477932Y-128227869D01*
X185540602Y-128379172D01*
X185540609Y-128379184D01*
X185586463Y-128447809D01*
X185607341Y-128514486D01*
X185588857Y-128581866D01*
X185536878Y-128628557D01*
X185467908Y-128639733D01*
X185435919Y-128631265D01*
X185433508Y-128630266D01*
X185433489Y-128630261D01*
X185278845Y-128599500D01*
X185278842Y-128599500D01*
X185121158Y-128599500D01*
X185121155Y-128599500D01*
X184966510Y-128630261D01*
X184966498Y-128630264D01*
X184820827Y-128690602D01*
X184820814Y-128690609D01*
X184689714Y-128778208D01*
X184689709Y-128778212D01*
X184655627Y-128812294D01*
X184594304Y-128845779D01*
X184524612Y-128840793D01*
X184499057Y-128827715D01*
X184480161Y-128815089D01*
X184480160Y-128815088D01*
X184480158Y-128815087D01*
X184480155Y-128815085D01*
X184480150Y-128815083D01*
X184334480Y-128754745D01*
X184334468Y-128754742D01*
X184179824Y-128723981D01*
X184179821Y-128723981D01*
X184022137Y-128723981D01*
X184022134Y-128723981D01*
X183867489Y-128754742D01*
X183867477Y-128754745D01*
X183721806Y-128815083D01*
X183721793Y-128815090D01*
X183590690Y-128902691D01*
X183590686Y-128902694D01*
X183479192Y-129014188D01*
X183479189Y-129014192D01*
X183391588Y-129145295D01*
X183391581Y-129145308D01*
X183331243Y-129290979D01*
X183331240Y-129290991D01*
X183300479Y-129445634D01*
X183300479Y-129603327D01*
X183331240Y-129757970D01*
X183331243Y-129757982D01*
X183391581Y-129903653D01*
X183391588Y-129903666D01*
X183479189Y-130034769D01*
X183479192Y-130034773D01*
X183590689Y-130146270D01*
X183682086Y-130207339D01*
X183721800Y-130233875D01*
X183772953Y-130255063D01*
X183827355Y-130298901D01*
X183849421Y-130365195D01*
X183849500Y-130369623D01*
X183849500Y-131678433D01*
X183829815Y-131745472D01*
X183777011Y-131791227D01*
X183707853Y-131801171D01*
X183701313Y-131800051D01*
X183698543Y-131799500D01*
X183698540Y-131799500D01*
X183501459Y-131799500D01*
X183501456Y-131799500D01*
X183308171Y-131837947D01*
X183308163Y-131837949D01*
X183126087Y-131913367D01*
X183126078Y-131913372D01*
X182962218Y-132022860D01*
X182962214Y-132022863D01*
X182521899Y-132463181D01*
X182460576Y-132496666D01*
X182434218Y-132499500D01*
X179844190Y-132499500D01*
X179777151Y-132479815D01*
X179731396Y-132427011D01*
X179721452Y-132357853D01*
X179722573Y-132351308D01*
X179747285Y-132227075D01*
X179747285Y-132069386D01*
X179747284Y-132069384D01*
X179738030Y-132022860D01*
X179716522Y-131914734D01*
X179684716Y-131837947D01*
X179656182Y-131769058D01*
X179656175Y-131769045D01*
X179568574Y-131637942D01*
X179568571Y-131637938D01*
X179457077Y-131526444D01*
X179457073Y-131526441D01*
X179325970Y-131438840D01*
X179325957Y-131438833D01*
X179180286Y-131378495D01*
X179180276Y-131378492D01*
X179026811Y-131347966D01*
X178964901Y-131315581D01*
X178963322Y-131314030D01*
X178586819Y-130937527D01*
X178553334Y-130876204D01*
X178550500Y-130849846D01*
X178550500Y-123185928D01*
X178525502Y-123060261D01*
X178525501Y-123060260D01*
X178525501Y-123060256D01*
X178476465Y-122941873D01*
X178405277Y-122835331D01*
X178405275Y-122835329D01*
X178405273Y-122835326D01*
X177646524Y-122076577D01*
X181249500Y-122076577D01*
X181249500Y-122273422D01*
X181280290Y-122467826D01*
X181341117Y-122655029D01*
X181426631Y-122822859D01*
X181430476Y-122830405D01*
X181546172Y-122989646D01*
X181685354Y-123128828D01*
X181844595Y-123244524D01*
X181927455Y-123286743D01*
X182019970Y-123333882D01*
X182019972Y-123333882D01*
X182019975Y-123333884D01*
X182120317Y-123366487D01*
X182207173Y-123394709D01*
X182401578Y-123425500D01*
X182401583Y-123425500D01*
X182598422Y-123425500D01*
X182792826Y-123394709D01*
X182792835Y-123394706D01*
X182980025Y-123333884D01*
X183155405Y-123244524D01*
X183314646Y-123128828D01*
X183453828Y-122989646D01*
X183569524Y-122830405D01*
X183639515Y-122693038D01*
X183687489Y-122642243D01*
X183755310Y-122625448D01*
X183821445Y-122647985D01*
X183860484Y-122693038D01*
X183930476Y-122830405D01*
X184046172Y-122989646D01*
X184185354Y-123128828D01*
X184344595Y-123244524D01*
X184427455Y-123286743D01*
X184519970Y-123333882D01*
X184519972Y-123333882D01*
X184519975Y-123333884D01*
X184620317Y-123366487D01*
X184707173Y-123394709D01*
X184901578Y-123425500D01*
X184901583Y-123425500D01*
X185098422Y-123425500D01*
X185292826Y-123394709D01*
X185292835Y-123394706D01*
X185480025Y-123333884D01*
X185655405Y-123244524D01*
X185814646Y-123128828D01*
X185953828Y-122989646D01*
X186069524Y-122830405D01*
X186139515Y-122693038D01*
X186187489Y-122642243D01*
X186255310Y-122625448D01*
X186321445Y-122647985D01*
X186360484Y-122693038D01*
X186430476Y-122830405D01*
X186546172Y-122989646D01*
X186685354Y-123128828D01*
X186844595Y-123244524D01*
X186927455Y-123286743D01*
X187019970Y-123333882D01*
X187019972Y-123333882D01*
X187019975Y-123333884D01*
X187120317Y-123366487D01*
X187207173Y-123394709D01*
X187401578Y-123425500D01*
X187401583Y-123425500D01*
X187598422Y-123425500D01*
X187792826Y-123394709D01*
X187792835Y-123394706D01*
X187980025Y-123333884D01*
X188155405Y-123244524D01*
X188314646Y-123128828D01*
X188453828Y-122989646D01*
X188569524Y-122830405D01*
X188658884Y-122655025D01*
X188719709Y-122467826D01*
X188750500Y-122273422D01*
X188750500Y-122076577D01*
X188719709Y-121882173D01*
X188671402Y-121733501D01*
X188658884Y-121694975D01*
X188658882Y-121694972D01*
X188658882Y-121694970D01*
X188569523Y-121519594D01*
X188453828Y-121360354D01*
X188314646Y-121221172D01*
X188155405Y-121105476D01*
X187980029Y-121016117D01*
X187792826Y-120955290D01*
X187598422Y-120924500D01*
X187598417Y-120924500D01*
X187401583Y-120924500D01*
X187401578Y-120924500D01*
X187207173Y-120955290D01*
X187019970Y-121016117D01*
X186844594Y-121105476D01*
X186823466Y-121120827D01*
X186685354Y-121221172D01*
X186685352Y-121221174D01*
X186685351Y-121221174D01*
X186546174Y-121360351D01*
X186546174Y-121360352D01*
X186546172Y-121360354D01*
X186527845Y-121385579D01*
X186430476Y-121519594D01*
X186360485Y-121656960D01*
X186312510Y-121707756D01*
X186244689Y-121724551D01*
X186178554Y-121702014D01*
X186139515Y-121656960D01*
X186069523Y-121519594D01*
X185953828Y-121360354D01*
X185814646Y-121221172D01*
X185655405Y-121105476D01*
X185480029Y-121016117D01*
X185292826Y-120955290D01*
X185098422Y-120924500D01*
X185098417Y-120924500D01*
X184901583Y-120924500D01*
X184901578Y-120924500D01*
X184707173Y-120955290D01*
X184519970Y-121016117D01*
X184344594Y-121105476D01*
X184323466Y-121120827D01*
X184185354Y-121221172D01*
X184185352Y-121221174D01*
X184185351Y-121221174D01*
X184046174Y-121360351D01*
X184046174Y-121360352D01*
X184046172Y-121360354D01*
X184027845Y-121385579D01*
X183930476Y-121519594D01*
X183860485Y-121656960D01*
X183812510Y-121707756D01*
X183744689Y-121724551D01*
X183678554Y-121702014D01*
X183639515Y-121656960D01*
X183569523Y-121519594D01*
X183453828Y-121360354D01*
X183314646Y-121221172D01*
X183155405Y-121105476D01*
X182980029Y-121016117D01*
X182792826Y-120955290D01*
X182598422Y-120924500D01*
X182598417Y-120924500D01*
X182401583Y-120924500D01*
X182401578Y-120924500D01*
X182207173Y-120955290D01*
X182019970Y-121016117D01*
X181844594Y-121105476D01*
X181823466Y-121120827D01*
X181685354Y-121221172D01*
X181685352Y-121221174D01*
X181685351Y-121221174D01*
X181546174Y-121360351D01*
X181546174Y-121360352D01*
X181546172Y-121360354D01*
X181527845Y-121385579D01*
X181430476Y-121519594D01*
X181341117Y-121694970D01*
X181280290Y-121882173D01*
X181249500Y-122076577D01*
X177646524Y-122076577D01*
X176564673Y-120994726D01*
X176564669Y-120994723D01*
X176458127Y-120923535D01*
X176339744Y-120874499D01*
X176339738Y-120874497D01*
X176214071Y-120849500D01*
X176214069Y-120849500D01*
X173704935Y-120849500D01*
X173637896Y-120829815D01*
X173636090Y-120828633D01*
X173579179Y-120790606D01*
X173579172Y-120790602D01*
X173433501Y-120730264D01*
X173433489Y-120730261D01*
X173278845Y-120699500D01*
X173278842Y-120699500D01*
X173121158Y-120699500D01*
X173121155Y-120699500D01*
X172966510Y-120730261D01*
X172966498Y-120730264D01*
X172820827Y-120790602D01*
X172820814Y-120790609D01*
X172689711Y-120878210D01*
X172689707Y-120878213D01*
X172578213Y-120989707D01*
X172578210Y-120989711D01*
X172490609Y-121120814D01*
X172490602Y-121120827D01*
X172430264Y-121266498D01*
X172430261Y-121266510D01*
X172399500Y-121421153D01*
X172399500Y-121578846D01*
X172430261Y-121733489D01*
X172430264Y-121733501D01*
X172490602Y-121879172D01*
X172490609Y-121879185D01*
X172578210Y-122010288D01*
X172578213Y-122010292D01*
X172689707Y-122121786D01*
X172689711Y-122121789D01*
X172820814Y-122209390D01*
X172820827Y-122209397D01*
X172966498Y-122269735D01*
X172966503Y-122269737D01*
X173121153Y-122300499D01*
X173121156Y-122300500D01*
X173121158Y-122300500D01*
X173278844Y-122300500D01*
X173278845Y-122300499D01*
X173433497Y-122269737D01*
X173579179Y-122209394D01*
X173636044Y-122171397D01*
X173702721Y-122150520D01*
X173704935Y-122150500D01*
X175829192Y-122150500D01*
X175896231Y-122170185D01*
X175916873Y-122186819D01*
X177213181Y-123483127D01*
X177246666Y-123544450D01*
X177249500Y-123570808D01*
X177249500Y-131234725D01*
X177268622Y-131330853D01*
X177268622Y-131330854D01*
X177274497Y-131360390D01*
X177274499Y-131360398D01*
X177306989Y-131438837D01*
X177323535Y-131478781D01*
X177323550Y-131478803D01*
X177394726Y-131585327D01*
X177394727Y-131585328D01*
X178097219Y-132287819D01*
X178130704Y-132349142D01*
X178125720Y-132418833D01*
X178083849Y-132474767D01*
X178018384Y-132499184D01*
X178009538Y-132499500D01*
X173824500Y-132499500D01*
X173757461Y-132479815D01*
X173711706Y-132427011D01*
X173700500Y-132375500D01*
X173700500Y-123601456D01*
X173700499Y-123601454D01*
X173662052Y-123408170D01*
X173662051Y-123408167D01*
X173662051Y-123408165D01*
X173656477Y-123394709D01*
X173620630Y-123308165D01*
X173586635Y-123226091D01*
X173586628Y-123226079D01*
X173477140Y-123062219D01*
X173475176Y-123060255D01*
X173337782Y-122922861D01*
X173237782Y-122822861D01*
X173237781Y-122822860D01*
X173237780Y-122822859D01*
X173073920Y-122713371D01*
X173073911Y-122713366D01*
X173001315Y-122683296D01*
X172945165Y-122660038D01*
X172891836Y-122637949D01*
X172891832Y-122637948D01*
X172891828Y-122637946D01*
X172795188Y-122618724D01*
X172698544Y-122599500D01*
X172698541Y-122599500D01*
X171124500Y-122599500D01*
X171057461Y-122579815D01*
X171011706Y-122527011D01*
X171000500Y-122475500D01*
X171000500Y-119965782D01*
X171020185Y-119898743D01*
X171036819Y-119878101D01*
X172188343Y-118726577D01*
X181249500Y-118726577D01*
X181249500Y-118923422D01*
X181280290Y-119117826D01*
X181341117Y-119305029D01*
X181412078Y-119444297D01*
X181430476Y-119480405D01*
X181546172Y-119639646D01*
X181685354Y-119778828D01*
X181844595Y-119894524D01*
X181927455Y-119936743D01*
X182019970Y-119983882D01*
X182019972Y-119983882D01*
X182019975Y-119983884D01*
X182120317Y-120016487D01*
X182207173Y-120044709D01*
X182401578Y-120075500D01*
X182401583Y-120075500D01*
X182598422Y-120075500D01*
X182792826Y-120044709D01*
X182869681Y-120019737D01*
X182980025Y-119983884D01*
X183155405Y-119894524D01*
X183314646Y-119778828D01*
X183453828Y-119639646D01*
X183569524Y-119480405D01*
X183639515Y-119343038D01*
X183687489Y-119292243D01*
X183755310Y-119275448D01*
X183821445Y-119297985D01*
X183860484Y-119343038D01*
X183930476Y-119480405D01*
X184046172Y-119639646D01*
X184185354Y-119778828D01*
X184344595Y-119894524D01*
X184427455Y-119936743D01*
X184519970Y-119983882D01*
X184519972Y-119983882D01*
X184519975Y-119983884D01*
X184620317Y-120016487D01*
X184707173Y-120044709D01*
X184901578Y-120075500D01*
X184901583Y-120075500D01*
X185098422Y-120075500D01*
X185292826Y-120044709D01*
X185369681Y-120019737D01*
X185480025Y-119983884D01*
X185655405Y-119894524D01*
X185814646Y-119778828D01*
X185953828Y-119639646D01*
X186069524Y-119480405D01*
X186139515Y-119343038D01*
X186187489Y-119292243D01*
X186255310Y-119275448D01*
X186321445Y-119297985D01*
X186360484Y-119343038D01*
X186430476Y-119480405D01*
X186546172Y-119639646D01*
X186685354Y-119778828D01*
X186844595Y-119894524D01*
X186927455Y-119936743D01*
X187019970Y-119983882D01*
X187019972Y-119983882D01*
X187019975Y-119983884D01*
X187120317Y-120016487D01*
X187207173Y-120044709D01*
X187401578Y-120075500D01*
X187401583Y-120075500D01*
X187598422Y-120075500D01*
X187792826Y-120044709D01*
X187869681Y-120019737D01*
X187980025Y-119983884D01*
X188155405Y-119894524D01*
X188314646Y-119778828D01*
X188453828Y-119639646D01*
X188569524Y-119480405D01*
X188658884Y-119305025D01*
X188719709Y-119117826D01*
X188750500Y-118923422D01*
X188750500Y-118726577D01*
X188719709Y-118532173D01*
X188666382Y-118368052D01*
X188658884Y-118344975D01*
X188658882Y-118344972D01*
X188658882Y-118344970D01*
X188573695Y-118177782D01*
X188569524Y-118169595D01*
X188453828Y-118010354D01*
X188314646Y-117871172D01*
X188155405Y-117755476D01*
X188120090Y-117737482D01*
X187980029Y-117666117D01*
X187792826Y-117605290D01*
X187598422Y-117574500D01*
X187598417Y-117574500D01*
X187401583Y-117574500D01*
X187401578Y-117574500D01*
X187207173Y-117605290D01*
X187019970Y-117666117D01*
X186844594Y-117755476D01*
X186769701Y-117809890D01*
X186685354Y-117871172D01*
X186685352Y-117871174D01*
X186685351Y-117871174D01*
X186546174Y-118010351D01*
X186546174Y-118010352D01*
X186546172Y-118010354D01*
X186531979Y-118029889D01*
X186430476Y-118169594D01*
X186360485Y-118306960D01*
X186312510Y-118357756D01*
X186244689Y-118374551D01*
X186178554Y-118352014D01*
X186139515Y-118306960D01*
X186073695Y-118177782D01*
X186069524Y-118169595D01*
X185953828Y-118010354D01*
X185814646Y-117871172D01*
X185655405Y-117755476D01*
X185620090Y-117737482D01*
X185480029Y-117666117D01*
X185292826Y-117605290D01*
X185098422Y-117574500D01*
X185098417Y-117574500D01*
X184901583Y-117574500D01*
X184901578Y-117574500D01*
X184707173Y-117605290D01*
X184519970Y-117666117D01*
X184344594Y-117755476D01*
X184269701Y-117809890D01*
X184185354Y-117871172D01*
X184185352Y-117871174D01*
X184185351Y-117871174D01*
X184046174Y-118010351D01*
X184046174Y-118010352D01*
X184046172Y-118010354D01*
X184031979Y-118029889D01*
X183930476Y-118169594D01*
X183860485Y-118306960D01*
X183812510Y-118357756D01*
X183744689Y-118374551D01*
X183678554Y-118352014D01*
X183639515Y-118306960D01*
X183573695Y-118177782D01*
X183569524Y-118169595D01*
X183453828Y-118010354D01*
X183314646Y-117871172D01*
X183155405Y-117755476D01*
X183120090Y-117737482D01*
X182980029Y-117666117D01*
X182792826Y-117605290D01*
X182598422Y-117574500D01*
X182598417Y-117574500D01*
X182401583Y-117574500D01*
X182401578Y-117574500D01*
X182207173Y-117605290D01*
X182019970Y-117666117D01*
X181844594Y-117755476D01*
X181769701Y-117809890D01*
X181685354Y-117871172D01*
X181685352Y-117871174D01*
X181685351Y-117871174D01*
X181546174Y-118010351D01*
X181546174Y-118010352D01*
X181546172Y-118010354D01*
X181531979Y-118029889D01*
X181430476Y-118169594D01*
X181341117Y-118344970D01*
X181280290Y-118532173D01*
X181249500Y-118726577D01*
X172188343Y-118726577D01*
X172280890Y-118634030D01*
X173159445Y-117755476D01*
X175278102Y-115636819D01*
X175339425Y-115603334D01*
X175365783Y-115600500D01*
X182198543Y-115600500D01*
X182368704Y-115566652D01*
X182391835Y-115562051D01*
X182573914Y-115486632D01*
X182737782Y-115377139D01*
X182877139Y-115237782D01*
X182986632Y-115073914D01*
X183062051Y-114891835D01*
X183062051Y-114891833D01*
X183063744Y-114887747D01*
X183090621Y-114847521D01*
X184480045Y-113458099D01*
X184575858Y-113314705D01*
X184641855Y-113155374D01*
X184675500Y-112986229D01*
X184675500Y-112813771D01*
X184675500Y-110999500D01*
X184695185Y-110932461D01*
X184747989Y-110886706D01*
X184799500Y-110875500D01*
X192586231Y-110875500D01*
X192586232Y-110875499D01*
X192755374Y-110841855D01*
X192914705Y-110775858D01*
X193058099Y-110680045D01*
X193180045Y-110558099D01*
X193275858Y-110414705D01*
X193341855Y-110255374D01*
X193375500Y-110086229D01*
X193375500Y-109913771D01*
X193375500Y-109913768D01*
X193375499Y-109913766D01*
X193357663Y-109824097D01*
X193341855Y-109744626D01*
X193311491Y-109671321D01*
X193275861Y-109585301D01*
X193275854Y-109585288D01*
X193180045Y-109441901D01*
X193180042Y-109441897D01*
X193058102Y-109319957D01*
X193058098Y-109319954D01*
X192914711Y-109224145D01*
X192914698Y-109224138D01*
X192755378Y-109158146D01*
X192755366Y-109158143D01*
X192586232Y-109124500D01*
X192586229Y-109124500D01*
X183886229Y-109124500D01*
X183713771Y-109124500D01*
X183713768Y-109124500D01*
X183544633Y-109158143D01*
X183544621Y-109158146D01*
X183385301Y-109224138D01*
X183385288Y-109224145D01*
X183241901Y-109319954D01*
X183241897Y-109319957D01*
X183119957Y-109441897D01*
X183119954Y-109441901D01*
X183024145Y-109585288D01*
X183024138Y-109585301D01*
X182958146Y-109744621D01*
X182958143Y-109744633D01*
X182924500Y-109913766D01*
X182924500Y-112485994D01*
X182904815Y-112553033D01*
X182888181Y-112573675D01*
X181898675Y-113563181D01*
X181837352Y-113596666D01*
X181810994Y-113599500D01*
X175560523Y-113599500D01*
X175493484Y-113579815D01*
X175447729Y-113527011D01*
X175437785Y-113457853D01*
X175466810Y-113394297D01*
X175472842Y-113387819D01*
X175542315Y-113318345D01*
X175634356Y-113169124D01*
X175634358Y-113169119D01*
X175689505Y-113002697D01*
X175689506Y-113002690D01*
X175699999Y-112899986D01*
X175700000Y-112899973D01*
X175700000Y-112750000D01*
X172750000Y-112750000D01*
X172750000Y-113599999D01*
X172999972Y-113599999D01*
X172999986Y-113599998D01*
X173102697Y-113589505D01*
X173269119Y-113534358D01*
X173269124Y-113534356D01*
X173418343Y-113442316D01*
X173423084Y-113438568D01*
X173487877Y-113412424D01*
X173556520Y-113425460D01*
X173576916Y-113438568D01*
X173581656Y-113442316D01*
X173730875Y-113534356D01*
X173730880Y-113534358D01*
X173897302Y-113589505D01*
X173897309Y-113589506D01*
X174000019Y-113599999D01*
X174187217Y-113599999D01*
X174254257Y-113619683D01*
X174300012Y-113672487D01*
X174309956Y-113741645D01*
X174280931Y-113805201D01*
X174265887Y-113819849D01*
X174262216Y-113822861D01*
X170510579Y-117574500D01*
X169362220Y-118722859D01*
X169362218Y-118722861D01*
X169322561Y-118762518D01*
X169222859Y-118862219D01*
X169113371Y-119026079D01*
X169113366Y-119026089D01*
X169060039Y-119154829D01*
X169060038Y-119154834D01*
X169047159Y-119185931D01*
X169047158Y-119185934D01*
X169037949Y-119208162D01*
X169037947Y-119208171D01*
X168999500Y-119401454D01*
X168999500Y-120176695D01*
X168979815Y-120243734D01*
X168927011Y-120289489D01*
X168857853Y-120299433D01*
X168794297Y-120270408D01*
X168787819Y-120264376D01*
X168318169Y-119794726D01*
X168294376Y-119778828D01*
X168211623Y-119723535D01*
X168093240Y-119674499D01*
X168093234Y-119674497D01*
X167967567Y-119649500D01*
X167967565Y-119649500D01*
X161258189Y-119649500D01*
X161191150Y-119629815D01*
X161145395Y-119577011D01*
X161135451Y-119507853D01*
X161164476Y-119444297D01*
X161185303Y-119425182D01*
X161227510Y-119394517D01*
X161394517Y-119227510D01*
X161533343Y-119036433D01*
X161640568Y-118825992D01*
X161713553Y-118601368D01*
X161720537Y-118557271D01*
X161750500Y-118368097D01*
X161750500Y-118131902D01*
X161713553Y-117898631D01*
X161640566Y-117674003D01*
X161584002Y-117562991D01*
X161533343Y-117463567D01*
X161394517Y-117272490D01*
X161227510Y-117105483D01*
X161036433Y-116966657D01*
X161036432Y-116966656D01*
X161036430Y-116966655D01*
X160968204Y-116931891D01*
X160917408Y-116883916D01*
X160900500Y-116821407D01*
X160900500Y-113178591D01*
X160920185Y-113111552D01*
X160968206Y-113068106D01*
X161036431Y-113033344D01*
X161036430Y-113033344D01*
X161036433Y-113033343D01*
X161227510Y-112894517D01*
X161394517Y-112727510D01*
X161533343Y-112536433D01*
X161640568Y-112325992D01*
X161713553Y-112101368D01*
X161720121Y-112059901D01*
X161750500Y-111868097D01*
X161750500Y-111631902D01*
X161713553Y-111398631D01*
X161661192Y-111237482D01*
X161652852Y-111211817D01*
X161650858Y-111141978D01*
X161686938Y-111082145D01*
X161749639Y-111051316D01*
X161770784Y-111049500D01*
X162632838Y-111049500D01*
X164125500Y-111049500D01*
X164134185Y-111052050D01*
X164143147Y-111050762D01*
X164167187Y-111061740D01*
X164192539Y-111069185D01*
X164198466Y-111076025D01*
X164206703Y-111079787D01*
X164220992Y-111102021D01*
X164238294Y-111121989D01*
X164240581Y-111132503D01*
X164244477Y-111138565D01*
X164249500Y-111173500D01*
X164249500Y-111355390D01*
X164229815Y-111422429D01*
X164213182Y-111443071D01*
X164107287Y-111548966D01*
X164015187Y-111698284D01*
X164015185Y-111698289D01*
X163998050Y-111750000D01*
X163960001Y-111864824D01*
X163960001Y-111864825D01*
X163960000Y-111864825D01*
X163949500Y-111967604D01*
X163949500Y-113167622D01*
X163949501Y-113167639D01*
X163960000Y-113270417D01*
X163960001Y-113270420D01*
X164015185Y-113436952D01*
X164015187Y-113436957D01*
X164037982Y-113473914D01*
X164107288Y-113586277D01*
X164231344Y-113710333D01*
X164380666Y-113802435D01*
X164442440Y-113822905D01*
X164499884Y-113862676D01*
X164526707Y-113927192D01*
X164527053Y-113950340D01*
X164524077Y-113988145D01*
X165203554Y-114667621D01*
X165197339Y-114667621D01*
X165095606Y-114694880D01*
X165004394Y-114747541D01*
X164929920Y-114822015D01*
X164877259Y-114913227D01*
X164850000Y-115014960D01*
X164850000Y-115021174D01*
X164170524Y-114341698D01*
X164170523Y-114341698D01*
X164138143Y-114386265D01*
X164045244Y-114568589D01*
X163982009Y-114763203D01*
X163950000Y-114965303D01*
X163950000Y-115169938D01*
X163982009Y-115372038D01*
X164045244Y-115566652D01*
X164138141Y-115748971D01*
X164138147Y-115748980D01*
X164170523Y-115793542D01*
X164170524Y-115793543D01*
X164850000Y-115114067D01*
X164850000Y-115120282D01*
X164877259Y-115222015D01*
X164929920Y-115313227D01*
X165004394Y-115387701D01*
X165095606Y-115440362D01*
X165197339Y-115467621D01*
X165203553Y-115467621D01*
X164524076Y-116147095D01*
X164568650Y-116179480D01*
X164750968Y-116272376D01*
X164945582Y-116335611D01*
X165147683Y-116367621D01*
X165352317Y-116367621D01*
X165554417Y-116335611D01*
X165749031Y-116272376D01*
X165931349Y-116179480D01*
X165975921Y-116147095D01*
X165296447Y-115467621D01*
X165302661Y-115467621D01*
X165404394Y-115440362D01*
X165495606Y-115387701D01*
X165570080Y-115313227D01*
X165622741Y-115222015D01*
X165650000Y-115120282D01*
X165650000Y-115114069D01*
X166329474Y-115793543D01*
X166329474Y-115793542D01*
X166361859Y-115748970D01*
X166454755Y-115566652D01*
X166517990Y-115372038D01*
X166550000Y-115169938D01*
X166550000Y-114965303D01*
X166517990Y-114763203D01*
X166454755Y-114568589D01*
X166361859Y-114386271D01*
X166329474Y-114341698D01*
X166329474Y-114341697D01*
X165650000Y-115021172D01*
X165650000Y-115014960D01*
X165622741Y-114913227D01*
X165570080Y-114822015D01*
X165495606Y-114747541D01*
X165404394Y-114694880D01*
X165302661Y-114667621D01*
X165296446Y-114667621D01*
X165975921Y-113988146D01*
X165972946Y-113950340D01*
X165987310Y-113881962D01*
X166036361Y-113832205D01*
X166057555Y-113822906D01*
X166119334Y-113802435D01*
X166268656Y-113710333D01*
X166392712Y-113586277D01*
X166484814Y-113436955D01*
X166539999Y-113270418D01*
X166550500Y-113167630D01*
X166550500Y-112899986D01*
X171300001Y-112899986D01*
X171310494Y-113002697D01*
X171365641Y-113169119D01*
X171365643Y-113169124D01*
X171457684Y-113318345D01*
X171581654Y-113442315D01*
X171730875Y-113534356D01*
X171730880Y-113534358D01*
X171897302Y-113589505D01*
X171897309Y-113589506D01*
X172000019Y-113599999D01*
X172249999Y-113599999D01*
X172250000Y-113599998D01*
X172250000Y-112750000D01*
X171300001Y-112750000D01*
X171300001Y-112899986D01*
X166550500Y-112899986D01*
X166550499Y-112566246D01*
X166550499Y-111967619D01*
X166550498Y-111967602D01*
X166539999Y-111864824D01*
X166539998Y-111864821D01*
X166525944Y-111822409D01*
X166484814Y-111698287D01*
X166392712Y-111548965D01*
X166286818Y-111443071D01*
X166272111Y-111416137D01*
X166255523Y-111390325D01*
X166254631Y-111384124D01*
X166253334Y-111381748D01*
X166250500Y-111355390D01*
X166250500Y-111173500D01*
X166270185Y-111106461D01*
X166322989Y-111060706D01*
X166374500Y-111049500D01*
X167453198Y-111049500D01*
X167500652Y-111058940D01*
X167508155Y-111062048D01*
X167508159Y-111062049D01*
X167508164Y-111062051D01*
X167701455Y-111100499D01*
X167701458Y-111100500D01*
X167701460Y-111100500D01*
X167898542Y-111100500D01*
X167898543Y-111100499D01*
X168091836Y-111062051D01*
X168273914Y-110986631D01*
X168437781Y-110877139D01*
X168528102Y-110786817D01*
X168589423Y-110753334D01*
X168615782Y-110750500D01*
X170964071Y-110750500D01*
X171049843Y-110733438D01*
X171089744Y-110725501D01*
X171128048Y-110709634D01*
X171197514Y-110702165D01*
X171259994Y-110733438D01*
X171295648Y-110793526D01*
X171299500Y-110824193D01*
X171299500Y-110900000D01*
X171299501Y-110900019D01*
X171310000Y-111002796D01*
X171310001Y-111002799D01*
X171365185Y-111169331D01*
X171365187Y-111169336D01*
X171384101Y-111200000D01*
X171449099Y-111305380D01*
X171457289Y-111318657D01*
X171551304Y-111412672D01*
X171584789Y-111473995D01*
X171579805Y-111543687D01*
X171551305Y-111588034D01*
X171457682Y-111681657D01*
X171365643Y-111830875D01*
X171365641Y-111830880D01*
X171310494Y-111997302D01*
X171310493Y-111997309D01*
X171300000Y-112100013D01*
X171300000Y-112250000D01*
X175699999Y-112250000D01*
X175699999Y-112100028D01*
X175699998Y-112100013D01*
X175689505Y-111997302D01*
X175634358Y-111830880D01*
X175634356Y-111830875D01*
X175542315Y-111681654D01*
X175448695Y-111588034D01*
X175415210Y-111526711D01*
X175420194Y-111457019D01*
X175448691Y-111412676D01*
X175542712Y-111318656D01*
X175634814Y-111169334D01*
X175689999Y-111002797D01*
X175700500Y-110900009D01*
X175700499Y-110099992D01*
X175689999Y-109997203D01*
X175634814Y-109830666D01*
X175634808Y-109830656D01*
X175630763Y-109824097D01*
X175612324Y-109756704D01*
X175633248Y-109690041D01*
X175648623Y-109671321D01*
X175755273Y-109564672D01*
X175755273Y-109564671D01*
X175755276Y-109564669D01*
X175826465Y-109458127D01*
X175875501Y-109339744D01*
X175883506Y-109299500D01*
X175900500Y-109214069D01*
X175900500Y-108934499D01*
X175920185Y-108867460D01*
X175972989Y-108821705D01*
X176024496Y-108810499D01*
X176297872Y-108810499D01*
X176357483Y-108804091D01*
X176492331Y-108753796D01*
X176607546Y-108667546D01*
X176693796Y-108552331D01*
X176744091Y-108417483D01*
X176750500Y-108357873D01*
X176750500Y-107709000D01*
X176753050Y-107700314D01*
X176751762Y-107691353D01*
X176762740Y-107667312D01*
X176770185Y-107641961D01*
X176777025Y-107636033D01*
X176780787Y-107627797D01*
X176803021Y-107613507D01*
X176822989Y-107596206D01*
X176833503Y-107593918D01*
X176839565Y-107590023D01*
X176874500Y-107585000D01*
X176926000Y-107585000D01*
X176993039Y-107604685D01*
X177038794Y-107657489D01*
X177050000Y-107709000D01*
X177050000Y-108810000D01*
X177097828Y-108810000D01*
X177097844Y-108809999D01*
X177157372Y-108803598D01*
X177157379Y-108803596D01*
X177292086Y-108753354D01*
X177292093Y-108753350D01*
X177407187Y-108667190D01*
X177407190Y-108667187D01*
X177493350Y-108552093D01*
X177493354Y-108552086D01*
X177543596Y-108417379D01*
X177543598Y-108417372D01*
X177549999Y-108357844D01*
X177550000Y-108357827D01*
X177550000Y-108264923D01*
X177569685Y-108197884D01*
X177570000Y-108197530D01*
X177570000Y-107386988D01*
X177579940Y-107404205D01*
X177635795Y-107460060D01*
X177704204Y-107499556D01*
X177780504Y-107520000D01*
X177859496Y-107520000D01*
X177935796Y-107499556D01*
X178004205Y-107460060D01*
X178060060Y-107404205D01*
X178070000Y-107386988D01*
X178070000Y-108189862D01*
X178111690Y-108181569D01*
X178111692Y-108181569D01*
X178293671Y-108106192D01*
X178293684Y-108106185D01*
X178457462Y-107996751D01*
X178457466Y-107996748D01*
X178596748Y-107857466D01*
X178596751Y-107857462D01*
X178706185Y-107693684D01*
X178706192Y-107693671D01*
X178781569Y-107511693D01*
X178781572Y-107511681D01*
X178819999Y-107318495D01*
X178820000Y-107318492D01*
X178820000Y-106920000D01*
X178120000Y-106920000D01*
X178120000Y-106420000D01*
X178820000Y-106420000D01*
X178820000Y-106021508D01*
X178819999Y-106021504D01*
X178781572Y-105828318D01*
X178781569Y-105828306D01*
X178706192Y-105646328D01*
X178706185Y-105646315D01*
X178596751Y-105482537D01*
X178596748Y-105482533D01*
X178457466Y-105343251D01*
X178457462Y-105343248D01*
X178293684Y-105233814D01*
X178293671Y-105233807D01*
X178111691Y-105158429D01*
X178111683Y-105158427D01*
X178070000Y-105150135D01*
X178070000Y-105953011D01*
X178060060Y-105935795D01*
X178004205Y-105879940D01*
X177935796Y-105840444D01*
X177859496Y-105820000D01*
X177780504Y-105820000D01*
X177704204Y-105840444D01*
X177635795Y-105879940D01*
X177579940Y-105935795D01*
X177570000Y-105953011D01*
X177570000Y-105150136D01*
X177569999Y-105150135D01*
X177528316Y-105158427D01*
X177528308Y-105158429D01*
X177346328Y-105233807D01*
X177346315Y-105233814D01*
X177182537Y-105343248D01*
X177054583Y-105471202D01*
X176993260Y-105504686D01*
X176923568Y-105499702D01*
X176898011Y-105486622D01*
X176891897Y-105482537D01*
X176781021Y-105408452D01*
X176781020Y-105408451D01*
X176781018Y-105408450D01*
X176630793Y-105346225D01*
X176630783Y-105346222D01*
X176471307Y-105314500D01*
X176471305Y-105314500D01*
X176308695Y-105314500D01*
X176308693Y-105314500D01*
X176149216Y-105346222D01*
X176149206Y-105346225D01*
X175998980Y-105408450D01*
X175998976Y-105408452D01*
X175863779Y-105498788D01*
X175863770Y-105498795D01*
X175828366Y-105534199D01*
X175767043Y-105567684D01*
X175697351Y-105562698D01*
X175669154Y-105546478D01*
X175668734Y-105547108D01*
X175663671Y-105543725D01*
X175663669Y-105543723D01*
X175557127Y-105472535D01*
X175553906Y-105471201D01*
X175438744Y-105423499D01*
X175438738Y-105423497D01*
X175313071Y-105398500D01*
X175313069Y-105398500D01*
X171663650Y-105398500D01*
X171663648Y-105398500D01*
X171537980Y-105423497D01*
X171537974Y-105423499D01*
X171419593Y-105472534D01*
X171380301Y-105498788D01*
X171318598Y-105540016D01*
X171251922Y-105560893D01*
X171184542Y-105542408D01*
X171162028Y-105524594D01*
X171136228Y-105498794D01*
X171136220Y-105498788D01*
X171001023Y-105408452D01*
X171001019Y-105408450D01*
X170850793Y-105346225D01*
X170850783Y-105346222D01*
X170691307Y-105314500D01*
X170691305Y-105314500D01*
X170528695Y-105314500D01*
X170528693Y-105314500D01*
X170369216Y-105346222D01*
X170369206Y-105346225D01*
X170218982Y-105408449D01*
X170101987Y-105486623D01*
X170035310Y-105507500D01*
X169967930Y-105489015D01*
X169945416Y-105471201D01*
X169817466Y-105343251D01*
X169817462Y-105343248D01*
X169653684Y-105233814D01*
X169653671Y-105233807D01*
X169471691Y-105158429D01*
X169471683Y-105158427D01*
X169430000Y-105150135D01*
X169430000Y-105953011D01*
X169420060Y-105935795D01*
X169364205Y-105879940D01*
X169295796Y-105840444D01*
X169219496Y-105820000D01*
X169140504Y-105820000D01*
X169064204Y-105840444D01*
X168995795Y-105879940D01*
X168939940Y-105935795D01*
X168930000Y-105953011D01*
X168930000Y-105150136D01*
X168929999Y-105150135D01*
X168888316Y-105158427D01*
X168888308Y-105158429D01*
X168706328Y-105233807D01*
X168706315Y-105233814D01*
X168542537Y-105343248D01*
X168542533Y-105343251D01*
X168403251Y-105482533D01*
X168403248Y-105482537D01*
X168293814Y-105646315D01*
X168293807Y-105646328D01*
X168218430Y-105828306D01*
X168218427Y-105828318D01*
X168180000Y-106021504D01*
X168180000Y-106420000D01*
X168880000Y-106420000D01*
X168880000Y-106920000D01*
X168180000Y-106920000D01*
X168180000Y-107318495D01*
X168218427Y-107511681D01*
X168218430Y-107511693D01*
X168293807Y-107693671D01*
X168293814Y-107693684D01*
X168403248Y-107857462D01*
X168403251Y-107857466D01*
X168542533Y-107996748D01*
X168542537Y-107996751D01*
X168706315Y-108106185D01*
X168706328Y-108106192D01*
X168888308Y-108181569D01*
X168930000Y-108189862D01*
X168930000Y-107386988D01*
X168939940Y-107404205D01*
X168995795Y-107460060D01*
X169064204Y-107499556D01*
X169140504Y-107520000D01*
X169219496Y-107520000D01*
X169295796Y-107499556D01*
X169364205Y-107460060D01*
X169420060Y-107404205D01*
X169430000Y-107386988D01*
X169430000Y-108206262D01*
X169443999Y-108226813D01*
X169450000Y-108264923D01*
X169450000Y-108357844D01*
X169456401Y-108417372D01*
X169456403Y-108417379D01*
X169506645Y-108552086D01*
X169506649Y-108552093D01*
X169592809Y-108667187D01*
X169592812Y-108667190D01*
X169707906Y-108753350D01*
X169707913Y-108753354D01*
X169842620Y-108803596D01*
X169842627Y-108803598D01*
X169902155Y-108809999D01*
X169902172Y-108810000D01*
X169950000Y-108810000D01*
X169950000Y-107709000D01*
X169952550Y-107700314D01*
X169951262Y-107691353D01*
X169962240Y-107667312D01*
X169969685Y-107641961D01*
X169976525Y-107636033D01*
X169980287Y-107627797D01*
X170002521Y-107613507D01*
X170022489Y-107596206D01*
X170033003Y-107593918D01*
X170039065Y-107590023D01*
X170074000Y-107585000D01*
X170125500Y-107585000D01*
X170192539Y-107604685D01*
X170238294Y-107657489D01*
X170249500Y-107709000D01*
X170249500Y-109325500D01*
X170229815Y-109392539D01*
X170177011Y-109438294D01*
X170125500Y-109449500D01*
X168615784Y-109449500D01*
X168548745Y-109429815D01*
X168528103Y-109413181D01*
X168386785Y-109271863D01*
X168386781Y-109271860D01*
X168222920Y-109162371D01*
X168222911Y-109162366D01*
X168131493Y-109124500D01*
X168094165Y-109109038D01*
X168040836Y-109086949D01*
X168040832Y-109086948D01*
X168040828Y-109086946D01*
X167944188Y-109067724D01*
X167847544Y-109048500D01*
X167847541Y-109048500D01*
X165348541Y-109048500D01*
X162829920Y-109048500D01*
X161859879Y-109048500D01*
X161792840Y-109028815D01*
X161747085Y-108976011D01*
X161737141Y-108906853D01*
X161741948Y-108886181D01*
X161766540Y-108810497D01*
X161768477Y-108804534D01*
X161800500Y-108602352D01*
X161800500Y-108397648D01*
X161768477Y-108195466D01*
X161705220Y-108000781D01*
X161705218Y-108000778D01*
X161705218Y-108000776D01*
X161632195Y-107857462D01*
X161612287Y-107818390D01*
X161604556Y-107807749D01*
X161491971Y-107652786D01*
X161426866Y-107587681D01*
X161393381Y-107526358D01*
X161398365Y-107456666D01*
X161426866Y-107412319D01*
X161434980Y-107404205D01*
X161491966Y-107347219D01*
X161491968Y-107347215D01*
X161491971Y-107347213D01*
X161558092Y-107256204D01*
X161612287Y-107181610D01*
X161705220Y-106999219D01*
X161768477Y-106804534D01*
X161800500Y-106602352D01*
X161800500Y-106397648D01*
X161775417Y-106239284D01*
X161768477Y-106195465D01*
X161739127Y-106105137D01*
X161705220Y-106000781D01*
X161705218Y-106000778D01*
X161705218Y-106000776D01*
X161655753Y-105903697D01*
X161612287Y-105818390D01*
X161580092Y-105774077D01*
X161491971Y-105652786D01*
X161347213Y-105508028D01*
X161181613Y-105387715D01*
X161181612Y-105387714D01*
X161181610Y-105387713D01*
X161124653Y-105358691D01*
X160999223Y-105294781D01*
X160804534Y-105231522D01*
X160629995Y-105203878D01*
X160602352Y-105199500D01*
X160397648Y-105199500D01*
X160373329Y-105203351D01*
X160195465Y-105231522D01*
X160000776Y-105294781D01*
X159818386Y-105387715D01*
X159652786Y-105508028D01*
X159508028Y-105652786D01*
X159387714Y-105818386D01*
X159360203Y-105872379D01*
X159312227Y-105923174D01*
X159244406Y-105939968D01*
X159178272Y-105917429D01*
X159139234Y-105872376D01*
X159111861Y-105818652D01*
X159079474Y-105774077D01*
X159079474Y-105774076D01*
X158462550Y-106391001D01*
X158442630Y-106316657D01*
X158380095Y-106208343D01*
X158291657Y-106119905D01*
X158183343Y-106057370D01*
X158108996Y-106037449D01*
X158725922Y-105420524D01*
X158725921Y-105420523D01*
X158681359Y-105388147D01*
X158681350Y-105388141D01*
X158499031Y-105295244D01*
X158304417Y-105232009D01*
X158102317Y-105200000D01*
X157897683Y-105200000D01*
X157695582Y-105232009D01*
X157500968Y-105295244D01*
X157318644Y-105388143D01*
X157274077Y-105420523D01*
X157274077Y-105420524D01*
X157891003Y-106037449D01*
X157816657Y-106057370D01*
X157708343Y-106119905D01*
X157619905Y-106208343D01*
X157557370Y-106316657D01*
X157537449Y-106391002D01*
X156920524Y-105774077D01*
X156920523Y-105774077D01*
X156888143Y-105818644D01*
X156795244Y-106000968D01*
X156732009Y-106195582D01*
X156700000Y-106397682D01*
X156700000Y-106602317D01*
X156732009Y-106804417D01*
X156795244Y-106999031D01*
X156887558Y-107180206D01*
X156900454Y-107248875D01*
X156874178Y-107313616D01*
X156851388Y-107335765D01*
X156842457Y-107342450D01*
X156842451Y-107342457D01*
X156756206Y-107457664D01*
X156756202Y-107457671D01*
X156705908Y-107592517D01*
X156699501Y-107652116D01*
X156699500Y-107652135D01*
X156699500Y-109347870D01*
X156699501Y-109347876D01*
X156705908Y-109407483D01*
X156756202Y-109542328D01*
X156756206Y-109542335D01*
X156788371Y-109585301D01*
X156842454Y-109657546D01*
X156949811Y-109737914D01*
X156991682Y-109793847D01*
X156999500Y-109837180D01*
X156999500Y-110802690D01*
X156979815Y-110869729D01*
X156963181Y-110890371D01*
X156273787Y-111579765D01*
X156262518Y-111537708D01*
X156190110Y-111412292D01*
X156087708Y-111309890D01*
X155962292Y-111237482D01*
X155920234Y-111226212D01*
X156619105Y-110527340D01*
X156619104Y-110527338D01*
X156536174Y-110467087D01*
X156325802Y-110359897D01*
X156101247Y-110286934D01*
X156101248Y-110286934D01*
X155868052Y-110250000D01*
X155631948Y-110250000D01*
X155398752Y-110286934D01*
X155174197Y-110359897D01*
X154963830Y-110467084D01*
X154880894Y-110527340D01*
X155579766Y-111226212D01*
X155537708Y-111237482D01*
X155412292Y-111309890D01*
X155309890Y-111412292D01*
X155237482Y-111537708D01*
X155226212Y-111579766D01*
X154527340Y-110880894D01*
X154467084Y-110963830D01*
X154359897Y-111174197D01*
X154286934Y-111398752D01*
X154250000Y-111631947D01*
X154250000Y-111868052D01*
X154286934Y-112101247D01*
X154359897Y-112325802D01*
X154467087Y-112536174D01*
X154527338Y-112619104D01*
X154527340Y-112619105D01*
X155226212Y-111920233D01*
X155237482Y-111962292D01*
X155309890Y-112087708D01*
X155412292Y-112190110D01*
X155537708Y-112262518D01*
X155579765Y-112273787D01*
X154880893Y-112972658D01*
X154963828Y-113032914D01*
X155174197Y-113140102D01*
X155398752Y-113213065D01*
X155398751Y-113213065D01*
X155631948Y-113250000D01*
X155868052Y-113250000D01*
X156046034Y-113221810D01*
X156115327Y-113230764D01*
X156168779Y-113275761D01*
X156189419Y-113342512D01*
X156170694Y-113409826D01*
X156153113Y-113431964D01*
X153309302Y-116275776D01*
X153247979Y-116309261D01*
X153178287Y-116304277D01*
X153166821Y-116299329D01*
X153156513Y-116294250D01*
X153092331Y-116246204D01*
X152957483Y-116195909D01*
X152956731Y-116195828D01*
X152949450Y-116192241D01*
X152928147Y-116172658D01*
X152904983Y-116155318D01*
X152902738Y-116149301D01*
X152898012Y-116144956D01*
X152890677Y-116116963D01*
X152880566Y-116089853D01*
X152881930Y-116083579D01*
X152880303Y-116077368D01*
X152889267Y-116049852D01*
X152895418Y-116021580D01*
X152900837Y-116014340D01*
X152901947Y-116010935D01*
X152905648Y-116007912D01*
X152916563Y-115993332D01*
X153030104Y-115879792D01*
X153155051Y-115707816D01*
X153251557Y-115518412D01*
X153317246Y-115316243D01*
X153350500Y-115106287D01*
X153350500Y-114893713D01*
X153317246Y-114683757D01*
X153251557Y-114481588D01*
X153155051Y-114292184D01*
X153155049Y-114292181D01*
X153155048Y-114292179D01*
X153030109Y-114120213D01*
X152879786Y-113969890D01*
X152707817Y-113844949D01*
X152698504Y-113840204D01*
X152647707Y-113792230D01*
X152630912Y-113724409D01*
X152653449Y-113658274D01*
X152698507Y-113619232D01*
X152707555Y-113614622D01*
X152761716Y-113575270D01*
X152761717Y-113575270D01*
X152129408Y-112942962D01*
X152192993Y-112925925D01*
X152307007Y-112860099D01*
X152400099Y-112767007D01*
X152465925Y-112652993D01*
X152482962Y-112589408D01*
X153115270Y-113221717D01*
X153115270Y-113221716D01*
X153154622Y-113167554D01*
X153251095Y-112978217D01*
X153316757Y-112776130D01*
X153316757Y-112776127D01*
X153350000Y-112566246D01*
X153350000Y-112353753D01*
X153316757Y-112143872D01*
X153316757Y-112143869D01*
X153251095Y-111941782D01*
X153154623Y-111752447D01*
X153154621Y-111752443D01*
X153116492Y-111699963D01*
X153116489Y-111699960D01*
X153115269Y-111698282D01*
X152482962Y-112330590D01*
X152465925Y-112267007D01*
X152400099Y-112152993D01*
X152307007Y-112059901D01*
X152192993Y-111994075D01*
X152129409Y-111977037D01*
X152761716Y-111344728D01*
X152707550Y-111305375D01*
X152518217Y-111208904D01*
X152316129Y-111143242D01*
X152106246Y-111110000D01*
X151893754Y-111110000D01*
X151683872Y-111143242D01*
X151683869Y-111143242D01*
X151481782Y-111208904D01*
X151292439Y-111305380D01*
X151238282Y-111344727D01*
X151238282Y-111344728D01*
X151870591Y-111977037D01*
X151807007Y-111994075D01*
X151692993Y-112059901D01*
X151599901Y-112152993D01*
X151534075Y-112267007D01*
X151517037Y-112330591D01*
X150884728Y-111698282D01*
X150884727Y-111698282D01*
X150845380Y-111752439D01*
X150748904Y-111941782D01*
X150683242Y-112143869D01*
X150683242Y-112143872D01*
X150650000Y-112353753D01*
X150650000Y-112566246D01*
X150683242Y-112776127D01*
X150683242Y-112776130D01*
X150748904Y-112978217D01*
X150845375Y-113167550D01*
X150884728Y-113221716D01*
X151517037Y-112589408D01*
X151534075Y-112652993D01*
X151599901Y-112767007D01*
X151692993Y-112860099D01*
X151807007Y-112925925D01*
X151870590Y-112942962D01*
X151238282Y-113575269D01*
X151238282Y-113575270D01*
X151292452Y-113614626D01*
X151292451Y-113614626D01*
X151301495Y-113619234D01*
X151352292Y-113667208D01*
X151369087Y-113735029D01*
X151346550Y-113801164D01*
X151301499Y-113840202D01*
X151292182Y-113844949D01*
X151120213Y-113969890D01*
X150969890Y-114120213D01*
X150844951Y-114292179D01*
X150748444Y-114481585D01*
X150682753Y-114683760D01*
X150670171Y-114763203D01*
X150649500Y-114893713D01*
X150649500Y-115106287D01*
X150682754Y-115316243D01*
X150716848Y-115421174D01*
X150748444Y-115518414D01*
X150844951Y-115707820D01*
X150969890Y-115879786D01*
X151083430Y-115993326D01*
X151116915Y-116054649D01*
X151111931Y-116124341D01*
X151070059Y-116180274D01*
X151039083Y-116197189D01*
X150907669Y-116246203D01*
X150907664Y-116246206D01*
X150792455Y-116332452D01*
X150792452Y-116332455D01*
X150706206Y-116447664D01*
X150706202Y-116447671D01*
X150655908Y-116582517D01*
X150649501Y-116642116D01*
X150649500Y-116642135D01*
X150649500Y-118437870D01*
X150649501Y-118437876D01*
X150655908Y-118497483D01*
X150706202Y-118632328D01*
X150706206Y-118632335D01*
X150792452Y-118747544D01*
X150792455Y-118747547D01*
X150907665Y-118833794D01*
X150907667Y-118833794D01*
X150907669Y-118833796D01*
X150918830Y-118837958D01*
X150974764Y-118879826D01*
X150999184Y-118945289D01*
X150999500Y-118954141D01*
X150999500Y-121898541D01*
X150999500Y-121898543D01*
X150999499Y-121898543D01*
X151037947Y-122091829D01*
X151037950Y-122091839D01*
X151113364Y-122273907D01*
X151113371Y-122273920D01*
X151222859Y-122437780D01*
X151222860Y-122437781D01*
X151222861Y-122437782D01*
X151362218Y-122577139D01*
X151362219Y-122577139D01*
X151369286Y-122584206D01*
X151369285Y-122584206D01*
X151369289Y-122584209D01*
X152763181Y-123978101D01*
X152796666Y-124039424D01*
X152799500Y-124065782D01*
X152799500Y-143234902D01*
X152790061Y-143282355D01*
X152737949Y-143408163D01*
X152737947Y-143408171D01*
X152699500Y-143601455D01*
X152699500Y-143798544D01*
X152737947Y-143991828D01*
X152737949Y-143991836D01*
X152813367Y-144173910D01*
X152813372Y-144173920D01*
X152922860Y-144337780D01*
X152922863Y-144337784D01*
X153062215Y-144477136D01*
X153062219Y-144477139D01*
X153226079Y-144586627D01*
X153226083Y-144586629D01*
X153226086Y-144586631D01*
X153408164Y-144662051D01*
X153601455Y-144700499D01*
X153601458Y-144700500D01*
X153601460Y-144700500D01*
X153798542Y-144700500D01*
X153798543Y-144700499D01*
X153991836Y-144662051D01*
X154173914Y-144586631D01*
X154337781Y-144477139D01*
X154437780Y-144377140D01*
X154437782Y-144377139D01*
X154577139Y-144237782D01*
X154686632Y-144073914D01*
X154755303Y-143908127D01*
X154762051Y-143891836D01*
X154800500Y-143698541D01*
X154800500Y-143501460D01*
X154800500Y-143501459D01*
X154800500Y-133701459D01*
X154800500Y-124724500D01*
X154820185Y-124657461D01*
X154872989Y-124611706D01*
X154924500Y-124600500D01*
X161875500Y-124600500D01*
X161942539Y-124620185D01*
X161988294Y-124672989D01*
X161999500Y-124724500D01*
X161999500Y-133501459D01*
X161999500Y-143398541D01*
X161999500Y-143398543D01*
X161999499Y-143398543D01*
X162037947Y-143591829D01*
X162037950Y-143591839D01*
X162113364Y-143773907D01*
X162113371Y-143773920D01*
X162222860Y-143937781D01*
X162222863Y-143937785D01*
X162362214Y-144077136D01*
X162362218Y-144077139D01*
X162526079Y-144186628D01*
X162526092Y-144186635D01*
X162660510Y-144242312D01*
X162708165Y-144262051D01*
X162708169Y-144262051D01*
X162708170Y-144262052D01*
X162901456Y-144300500D01*
X162901459Y-144300500D01*
X163098543Y-144300500D01*
X163228582Y-144274632D01*
X163291835Y-144262051D01*
X163473914Y-144186632D01*
X163637782Y-144077139D01*
X163777139Y-143937782D01*
X163886632Y-143773914D01*
X163962051Y-143591835D01*
X163986908Y-143466872D01*
X164000500Y-143398543D01*
X164000500Y-124724500D01*
X164020185Y-124657461D01*
X164072989Y-124611706D01*
X164124500Y-124600500D01*
X166201459Y-124600500D01*
X167975500Y-124600500D01*
X168042539Y-124620185D01*
X168088294Y-124672989D01*
X168099500Y-124724500D01*
X168099500Y-124878846D01*
X168130261Y-125033489D01*
X168130264Y-125033501D01*
X168190602Y-125179172D01*
X168190609Y-125179185D01*
X168278210Y-125310288D01*
X168278213Y-125310292D01*
X168389707Y-125421786D01*
X168389711Y-125421789D01*
X168520814Y-125509390D01*
X168520827Y-125509397D01*
X168666498Y-125569735D01*
X168666503Y-125569737D01*
X168816131Y-125599500D01*
X168821153Y-125600499D01*
X168821156Y-125600500D01*
X168821158Y-125600500D01*
X168978844Y-125600500D01*
X168978845Y-125600499D01*
X169133497Y-125569737D01*
X169279179Y-125509394D01*
X169336044Y-125471397D01*
X169402721Y-125450520D01*
X169404935Y-125450500D01*
X170079192Y-125450500D01*
X170146231Y-125470185D01*
X170166873Y-125486819D01*
X170863181Y-126183127D01*
X170896666Y-126244450D01*
X170899500Y-126270808D01*
X170899500Y-143379191D01*
X170879815Y-143446230D01*
X170863181Y-143466872D01*
X168494727Y-145835325D01*
X168494723Y-145835331D01*
X168441711Y-145914668D01*
X168441712Y-145914669D01*
X168423534Y-145941874D01*
X168374499Y-146060255D01*
X168374497Y-146060261D01*
X168349500Y-146185928D01*
X168349500Y-147445064D01*
X168329815Y-147512103D01*
X168328603Y-147513954D01*
X168290608Y-147570817D01*
X168290602Y-147570828D01*
X168230264Y-147716498D01*
X168230261Y-147716510D01*
X168199500Y-147871153D01*
X168199500Y-148028846D01*
X168230261Y-148183489D01*
X168230264Y-148183501D01*
X168290602Y-148329172D01*
X168290609Y-148329185D01*
X168378210Y-148460288D01*
X168378213Y-148460292D01*
X168489707Y-148571786D01*
X168489711Y-148571789D01*
X168620814Y-148659390D01*
X168620827Y-148659397D01*
X168766498Y-148719735D01*
X168766503Y-148719737D01*
X168881930Y-148742697D01*
X168921153Y-148750499D01*
X168921156Y-148750500D01*
X168921158Y-148750500D01*
X169078844Y-148750500D01*
X169078845Y-148750499D01*
X169233497Y-148719737D01*
X169379179Y-148659394D01*
X169510289Y-148571789D01*
X169621789Y-148460289D01*
X169709394Y-148329179D01*
X169769737Y-148183497D01*
X169800500Y-148028842D01*
X169800500Y-147871158D01*
X169800500Y-147871155D01*
X169800499Y-147871153D01*
X169788272Y-147809685D01*
X169769737Y-147716503D01*
X169709394Y-147570821D01*
X169671396Y-147513953D01*
X169650520Y-147447276D01*
X169650500Y-147445064D01*
X169650500Y-146570808D01*
X169670185Y-146503769D01*
X169686819Y-146483127D01*
X171587819Y-144582127D01*
X171649142Y-144548642D01*
X171718834Y-144553626D01*
X171774767Y-144595498D01*
X171799184Y-144660962D01*
X171799500Y-144669808D01*
X171799500Y-145698541D01*
X171799500Y-145698543D01*
X171799499Y-145698543D01*
X171812097Y-145761870D01*
X171812097Y-145761871D01*
X171825399Y-145828744D01*
X171826709Y-145835331D01*
X171837946Y-145891828D01*
X171837949Y-145891837D01*
X171913364Y-146073907D01*
X171913371Y-146073920D01*
X172022859Y-146237780D01*
X172022860Y-146237781D01*
X172022861Y-146237782D01*
X172162218Y-146377139D01*
X172162219Y-146377139D01*
X172169286Y-146384206D01*
X172169285Y-146384206D01*
X172169288Y-146384208D01*
X173421860Y-147636781D01*
X173421861Y-147636782D01*
X173501577Y-147716498D01*
X173561219Y-147776140D01*
X173611423Y-147809685D01*
X173725086Y-147885632D01*
X173725088Y-147885633D01*
X173725092Y-147885635D01*
X173790664Y-147912795D01*
X173850665Y-147937648D01*
X173907164Y-147961051D01*
X174003812Y-147980275D01*
X174085780Y-147996580D01*
X174100458Y-147999500D01*
X174100459Y-147999500D01*
X174100460Y-147999500D01*
X174297540Y-147999500D01*
X177723218Y-147999500D01*
X177790257Y-148019185D01*
X177810899Y-148035819D01*
X178303576Y-148528496D01*
X178337061Y-148589819D01*
X178339350Y-148605344D01*
X178361105Y-148742697D01*
X178372754Y-148816243D01*
X178402931Y-148909119D01*
X178438444Y-149018414D01*
X178534951Y-149207820D01*
X178659890Y-149379786D01*
X178767923Y-149487819D01*
X178801408Y-149549142D01*
X178796424Y-149618834D01*
X178754552Y-149674767D01*
X178689088Y-149699184D01*
X178680242Y-149699500D01*
X150424500Y-149699500D01*
X150357461Y-149679815D01*
X150311706Y-149627011D01*
X150300500Y-149575500D01*
X150300500Y-103499598D01*
X150750000Y-103499598D01*
X150750000Y-103780401D01*
X150781437Y-104059412D01*
X150781439Y-104059424D01*
X150843921Y-104333178D01*
X150843922Y-104333180D01*
X150936662Y-104598217D01*
X151058492Y-104851200D01*
X151207884Y-105088956D01*
X151314187Y-105222257D01*
X152277912Y-104258532D01*
X152372829Y-104389175D01*
X152500825Y-104517171D01*
X152631466Y-104612086D01*
X151667741Y-105575810D01*
X151667741Y-105575811D01*
X151801043Y-105682115D01*
X152038799Y-105831507D01*
X152291782Y-105953337D01*
X152556819Y-106046077D01*
X152556821Y-106046078D01*
X152830575Y-106108560D01*
X152830587Y-106108562D01*
X153109598Y-106139999D01*
X153109600Y-106140000D01*
X153390400Y-106140000D01*
X153390401Y-106139999D01*
X153669412Y-106108562D01*
X153669424Y-106108560D01*
X153943178Y-106046078D01*
X153943180Y-106046077D01*
X154208217Y-105953337D01*
X154461200Y-105831507D01*
X154698956Y-105682116D01*
X154832257Y-105575810D01*
X154811911Y-105555464D01*
X153868533Y-104612086D01*
X153999175Y-104517171D01*
X154127171Y-104389175D01*
X154222086Y-104258533D01*
X155185810Y-105222257D01*
X155292116Y-105088956D01*
X155441507Y-104851200D01*
X155563337Y-104598217D01*
X155656077Y-104333180D01*
X155656078Y-104333178D01*
X155718560Y-104059424D01*
X155718562Y-104059412D01*
X155749999Y-103780401D01*
X155750000Y-103780399D01*
X155750000Y-103499600D01*
X155749999Y-103499598D01*
X162750000Y-103499598D01*
X162750000Y-103780401D01*
X162781437Y-104059412D01*
X162781439Y-104059424D01*
X162843921Y-104333178D01*
X162843922Y-104333180D01*
X162936662Y-104598217D01*
X163058492Y-104851200D01*
X163207884Y-105088956D01*
X163314187Y-105222257D01*
X164277912Y-104258532D01*
X164372829Y-104389175D01*
X164500825Y-104517171D01*
X164631466Y-104612086D01*
X163667741Y-105575810D01*
X163667741Y-105575811D01*
X163801043Y-105682115D01*
X164038799Y-105831507D01*
X164291782Y-105953337D01*
X164556819Y-106046077D01*
X164556821Y-106046078D01*
X164830575Y-106108560D01*
X164830587Y-106108562D01*
X165109598Y-106139999D01*
X165109600Y-106140000D01*
X165390400Y-106140000D01*
X165390401Y-106139999D01*
X165669412Y-106108562D01*
X165669424Y-106108560D01*
X165943178Y-106046078D01*
X165943180Y-106046077D01*
X166208217Y-105953337D01*
X166311297Y-105903697D01*
X166311298Y-105903696D01*
X166461197Y-105831509D01*
X166698956Y-105682116D01*
X166832257Y-105575810D01*
X165868533Y-104612086D01*
X165999175Y-104517171D01*
X166127171Y-104389175D01*
X166222086Y-104258533D01*
X167185810Y-105222257D01*
X167292116Y-105088956D01*
X167441507Y-104851200D01*
X167563337Y-104598217D01*
X167656077Y-104333180D01*
X167656078Y-104333178D01*
X167718560Y-104059424D01*
X167718562Y-104059412D01*
X167749999Y-103780401D01*
X167750000Y-103780399D01*
X167750000Y-103499600D01*
X167749999Y-103499598D01*
X167718562Y-103220587D01*
X167718560Y-103220575D01*
X167656078Y-102946821D01*
X167656077Y-102946819D01*
X167580067Y-102729592D01*
X167580066Y-102729589D01*
X167563341Y-102681791D01*
X167563338Y-102681784D01*
X167441507Y-102428799D01*
X167292113Y-102191039D01*
X167292112Y-102191037D01*
X167269539Y-102162732D01*
X167269537Y-102162730D01*
X167212735Y-102091504D01*
X168180000Y-102091504D01*
X168180000Y-102240000D01*
X168880000Y-102240000D01*
X168880000Y-102740000D01*
X168180000Y-102740000D01*
X168180000Y-102888495D01*
X168218427Y-103081681D01*
X168218430Y-103081693D01*
X168293807Y-103263671D01*
X168293814Y-103263684D01*
X168403248Y-103427462D01*
X168403251Y-103427466D01*
X168542533Y-103566748D01*
X168542537Y-103566751D01*
X168706315Y-103676185D01*
X168706328Y-103676192D01*
X168888308Y-103751569D01*
X168930000Y-103759862D01*
X168930000Y-102956988D01*
X168939940Y-102974205D01*
X168995795Y-103030060D01*
X169064204Y-103069556D01*
X169140504Y-103090000D01*
X169219496Y-103090000D01*
X169295796Y-103069556D01*
X169364205Y-103030060D01*
X169420060Y-102974205D01*
X169430000Y-102956988D01*
X169430000Y-103759862D01*
X169471690Y-103751569D01*
X169471692Y-103751569D01*
X169653671Y-103676192D01*
X169653684Y-103676185D01*
X169817462Y-103566751D01*
X169817466Y-103566748D01*
X169956748Y-103427466D01*
X169956751Y-103427462D01*
X170066185Y-103263684D01*
X170066192Y-103263671D01*
X170141569Y-103081693D01*
X170141572Y-103081681D01*
X170179999Y-102888495D01*
X170180000Y-102888492D01*
X170180000Y-102740000D01*
X169480000Y-102740000D01*
X169480000Y-102240000D01*
X170180000Y-102240000D01*
X170180000Y-102091508D01*
X170179999Y-102091504D01*
X176820000Y-102091504D01*
X176820000Y-102240000D01*
X177520000Y-102240000D01*
X177520000Y-102740000D01*
X176820000Y-102740000D01*
X176820000Y-102888495D01*
X176858427Y-103081681D01*
X176858430Y-103081693D01*
X176933807Y-103263671D01*
X176933814Y-103263684D01*
X177043248Y-103427462D01*
X177043251Y-103427466D01*
X177182533Y-103566748D01*
X177182537Y-103566751D01*
X177346315Y-103676185D01*
X177346328Y-103676192D01*
X177528308Y-103751569D01*
X177570000Y-103759862D01*
X177570000Y-102956988D01*
X177579940Y-102974205D01*
X177635795Y-103030060D01*
X177704204Y-103069556D01*
X177780504Y-103090000D01*
X177859496Y-103090000D01*
X177935796Y-103069556D01*
X178004205Y-103030060D01*
X178060060Y-102974205D01*
X178070000Y-102956988D01*
X178070000Y-103759862D01*
X178111690Y-103751569D01*
X178111692Y-103751569D01*
X178293671Y-103676192D01*
X178293684Y-103676185D01*
X178457462Y-103566751D01*
X178457466Y-103566748D01*
X178596748Y-103427466D01*
X178596751Y-103427462D01*
X178706185Y-103263684D01*
X178706192Y-103263671D01*
X178781569Y-103081693D01*
X178781572Y-103081681D01*
X178819999Y-102888495D01*
X178820000Y-102888492D01*
X178820000Y-102740000D01*
X178120000Y-102740000D01*
X178120000Y-102240000D01*
X178820000Y-102240000D01*
X178820000Y-102199983D01*
X180149500Y-102199983D01*
X180149500Y-103750001D01*
X180149501Y-103750018D01*
X180160000Y-103852796D01*
X180160001Y-103852799D01*
X180215185Y-104019331D01*
X180215187Y-104019336D01*
X180240392Y-104060199D01*
X180307288Y-104168656D01*
X180431344Y-104292712D01*
X180580666Y-104384814D01*
X180747203Y-104439999D01*
X180849991Y-104450500D01*
X182150008Y-104450499D01*
X182252797Y-104439999D01*
X182419334Y-104384814D01*
X182568656Y-104292712D01*
X182692712Y-104168656D01*
X182769961Y-104043413D01*
X182821909Y-103996689D01*
X182890871Y-103985466D01*
X182954953Y-104013309D01*
X182993810Y-104071378D01*
X182999500Y-104108510D01*
X182999500Y-104898541D01*
X182999500Y-104898543D01*
X182999499Y-104898543D01*
X183037947Y-105091829D01*
X183037950Y-105091839D01*
X183113364Y-105273907D01*
X183113371Y-105273920D01*
X183222860Y-105437781D01*
X183222863Y-105437785D01*
X183366537Y-105581459D01*
X183366559Y-105581479D01*
X183719735Y-105934655D01*
X183719764Y-105934686D01*
X183862214Y-106077136D01*
X183862218Y-106077139D01*
X184026079Y-106186628D01*
X184026083Y-106186630D01*
X184026086Y-106186632D01*
X184153200Y-106239284D01*
X184208164Y-106262051D01*
X184304812Y-106281275D01*
X184366267Y-106293499D01*
X184401458Y-106300500D01*
X184401459Y-106300500D01*
X194498542Y-106300500D01*
X194510618Y-106298097D01*
X194595188Y-106281275D01*
X194691836Y-106262051D01*
X194746800Y-106239284D01*
X194873914Y-106186632D01*
X195037782Y-106077139D01*
X195177139Y-105937782D01*
X195177140Y-105937780D01*
X195184206Y-105930714D01*
X195184209Y-105930710D01*
X195637778Y-105477141D01*
X195637782Y-105477139D01*
X195777139Y-105337782D01*
X195886632Y-105173914D01*
X195896482Y-105150135D01*
X195955286Y-105008168D01*
X195955287Y-105008164D01*
X195962051Y-104991836D01*
X196000500Y-104798540D01*
X196000500Y-104601460D01*
X196000500Y-104060199D01*
X196006525Y-104039677D01*
X196007784Y-104018327D01*
X196017929Y-104000842D01*
X196020185Y-103993160D01*
X196024308Y-103987140D01*
X196028487Y-103981408D01*
X196030104Y-103979792D01*
X196149808Y-103815031D01*
X196177342Y-103793875D01*
X196205011Y-103772540D01*
X196205123Y-103772530D01*
X196205212Y-103772462D01*
X196239889Y-103769544D01*
X196274624Y-103766561D01*
X196274723Y-103766613D01*
X196274836Y-103766604D01*
X196305506Y-103782855D01*
X196336420Y-103799166D01*
X196336531Y-103799294D01*
X196336574Y-103799317D01*
X196336616Y-103799393D01*
X196350313Y-103815199D01*
X196418675Y-103909292D01*
X196469896Y-103979792D01*
X196620213Y-104130109D01*
X196792179Y-104255048D01*
X196792181Y-104255049D01*
X196792184Y-104255051D01*
X196981588Y-104351557D01*
X197183757Y-104417246D01*
X197393713Y-104450500D01*
X197393714Y-104450500D01*
X197606286Y-104450500D01*
X197606287Y-104450500D01*
X197816243Y-104417246D01*
X198018412Y-104351557D01*
X198207816Y-104255051D01*
X198269225Y-104210435D01*
X198379786Y-104130109D01*
X198379788Y-104130106D01*
X198379792Y-104130104D01*
X198530104Y-103979792D01*
X198530106Y-103979788D01*
X198530109Y-103979786D01*
X198655048Y-103807820D01*
X198655047Y-103807820D01*
X198655051Y-103807816D01*
X198751557Y-103618412D01*
X198817246Y-103416243D01*
X198850500Y-103206287D01*
X198850500Y-102743713D01*
X198817246Y-102533757D01*
X198751557Y-102331588D01*
X198655051Y-102142184D01*
X198655049Y-102142181D01*
X198655048Y-102142179D01*
X198530109Y-101970213D01*
X198379786Y-101819890D01*
X198207820Y-101694951D01*
X198018414Y-101598444D01*
X198018413Y-101598443D01*
X198018412Y-101598443D01*
X197816243Y-101532754D01*
X197816241Y-101532753D01*
X197816240Y-101532753D01*
X197654957Y-101507208D01*
X197606287Y-101499500D01*
X197393713Y-101499500D01*
X197345042Y-101507208D01*
X197183760Y-101532753D01*
X196981585Y-101598444D01*
X196792179Y-101694951D01*
X196620213Y-101819890D01*
X196469894Y-101970209D01*
X196469890Y-101970214D01*
X196350318Y-102134793D01*
X196294989Y-102177459D01*
X196225375Y-102183438D01*
X196163580Y-102150833D01*
X196149682Y-102134793D01*
X196030109Y-101970214D01*
X196030105Y-101970209D01*
X195879786Y-101819890D01*
X195707820Y-101694951D01*
X195518414Y-101598444D01*
X195518413Y-101598443D01*
X195518412Y-101598443D01*
X195316243Y-101532754D01*
X195316241Y-101532753D01*
X195316240Y-101532753D01*
X195154957Y-101507208D01*
X195106287Y-101499500D01*
X194893713Y-101499500D01*
X194845042Y-101507208D01*
X194683760Y-101532753D01*
X194481585Y-101598444D01*
X194292179Y-101694951D01*
X194120215Y-101819889D01*
X193981398Y-101958706D01*
X193920075Y-101992190D01*
X193850383Y-101987206D01*
X193794450Y-101945334D01*
X193788178Y-101936120D01*
X193692712Y-101781344D01*
X193568657Y-101657289D01*
X193568656Y-101657288D01*
X193419334Y-101565186D01*
X193252797Y-101510001D01*
X193252795Y-101510000D01*
X193150010Y-101499500D01*
X191849998Y-101499500D01*
X191849981Y-101499501D01*
X191747203Y-101510000D01*
X191747200Y-101510001D01*
X191580668Y-101565185D01*
X191580663Y-101565187D01*
X191431342Y-101657289D01*
X191307289Y-101781342D01*
X191215187Y-101930663D01*
X191215185Y-101930668D01*
X191210325Y-101945334D01*
X191160001Y-102097203D01*
X191160001Y-102097204D01*
X191160000Y-102097204D01*
X191149500Y-102199983D01*
X191149500Y-103750001D01*
X191149501Y-103750018D01*
X191160000Y-103852796D01*
X191160001Y-103852799D01*
X191214852Y-104018327D01*
X191215186Y-104019334D01*
X191271358Y-104110404D01*
X191289798Y-104177796D01*
X191268875Y-104244459D01*
X191215233Y-104289229D01*
X191165819Y-104299500D01*
X187509758Y-104299500D01*
X187442719Y-104279815D01*
X187396964Y-104227011D01*
X187387020Y-104157853D01*
X187416045Y-104094297D01*
X187422077Y-104087819D01*
X187470219Y-104039677D01*
X187530104Y-103979792D01*
X187530106Y-103979788D01*
X187530109Y-103979786D01*
X187655048Y-103807820D01*
X187655047Y-103807820D01*
X187655051Y-103807816D01*
X187751557Y-103618412D01*
X187817246Y-103416243D01*
X187850500Y-103206287D01*
X187850500Y-102743713D01*
X187817246Y-102533757D01*
X187751557Y-102331588D01*
X187655051Y-102142184D01*
X187655049Y-102142181D01*
X187655048Y-102142179D01*
X187530109Y-101970213D01*
X187379786Y-101819890D01*
X187207820Y-101694951D01*
X187018414Y-101598444D01*
X187018413Y-101598443D01*
X187018412Y-101598443D01*
X186816243Y-101532754D01*
X186816241Y-101532753D01*
X186816240Y-101532753D01*
X186654957Y-101507208D01*
X186606287Y-101499500D01*
X186393713Y-101499500D01*
X186345042Y-101507208D01*
X186183760Y-101532753D01*
X185981585Y-101598444D01*
X185792179Y-101694951D01*
X185620213Y-101819890D01*
X185469894Y-101970209D01*
X185469890Y-101970214D01*
X185350318Y-102134793D01*
X185294989Y-102177459D01*
X185225375Y-102183438D01*
X185163580Y-102150833D01*
X185149682Y-102134793D01*
X185030109Y-101970214D01*
X185030105Y-101970209D01*
X184879786Y-101819890D01*
X184707820Y-101694951D01*
X184518414Y-101598444D01*
X184518413Y-101598443D01*
X184518412Y-101598443D01*
X184316243Y-101532754D01*
X184316241Y-101532753D01*
X184316240Y-101532753D01*
X184154957Y-101507208D01*
X184106287Y-101499500D01*
X183893713Y-101499500D01*
X183845042Y-101507208D01*
X183683760Y-101532753D01*
X183481585Y-101598444D01*
X183292179Y-101694951D01*
X183120215Y-101819889D01*
X182981398Y-101958706D01*
X182920075Y-101992190D01*
X182850383Y-101987206D01*
X182794450Y-101945334D01*
X182788178Y-101936120D01*
X182692712Y-101781344D01*
X182568657Y-101657289D01*
X182568656Y-101657288D01*
X182419334Y-101565186D01*
X182252797Y-101510001D01*
X182252795Y-101510000D01*
X182150010Y-101499500D01*
X180849998Y-101499500D01*
X180849981Y-101499501D01*
X180747203Y-101510000D01*
X180747200Y-101510001D01*
X180580668Y-101565185D01*
X180580663Y-101565187D01*
X180431342Y-101657289D01*
X180307289Y-101781342D01*
X180215187Y-101930663D01*
X180215185Y-101930668D01*
X180210325Y-101945334D01*
X180160001Y-102097203D01*
X180160001Y-102097204D01*
X180160000Y-102097204D01*
X180149500Y-102199983D01*
X178820000Y-102199983D01*
X178820000Y-102091508D01*
X178819999Y-102091504D01*
X178781572Y-101898318D01*
X178781569Y-101898306D01*
X178706192Y-101716328D01*
X178706185Y-101716315D01*
X178596751Y-101552537D01*
X178596748Y-101552533D01*
X178457466Y-101413251D01*
X178457462Y-101413248D01*
X178293684Y-101303814D01*
X178293671Y-101303807D01*
X178111691Y-101228429D01*
X178111683Y-101228427D01*
X178070000Y-101220135D01*
X178070000Y-102023011D01*
X178060060Y-102005795D01*
X178004205Y-101949940D01*
X177935796Y-101910444D01*
X177859496Y-101890000D01*
X177780504Y-101890000D01*
X177704204Y-101910444D01*
X177635795Y-101949940D01*
X177579940Y-102005795D01*
X177570000Y-102023011D01*
X177570000Y-101220136D01*
X177569999Y-101220135D01*
X177528316Y-101228427D01*
X177528308Y-101228429D01*
X177346328Y-101303807D01*
X177346315Y-101303814D01*
X177182537Y-101413248D01*
X177182533Y-101413251D01*
X177043251Y-101552533D01*
X177043248Y-101552537D01*
X176933814Y-101716315D01*
X176933807Y-101716328D01*
X176858430Y-101898306D01*
X176858427Y-101898318D01*
X176820000Y-102091504D01*
X170179999Y-102091504D01*
X170141572Y-101898318D01*
X170141569Y-101898306D01*
X170066192Y-101716328D01*
X170066185Y-101716315D01*
X169956751Y-101552537D01*
X169956748Y-101552533D01*
X169817466Y-101413251D01*
X169817462Y-101413248D01*
X169653684Y-101303814D01*
X169653671Y-101303807D01*
X169471691Y-101228429D01*
X169471683Y-101228427D01*
X169430000Y-101220135D01*
X169430000Y-102023011D01*
X169420060Y-102005795D01*
X169364205Y-101949940D01*
X169295796Y-101910444D01*
X169219496Y-101890000D01*
X169140504Y-101890000D01*
X169064204Y-101910444D01*
X168995795Y-101949940D01*
X168939940Y-102005795D01*
X168930000Y-102023011D01*
X168930000Y-101220136D01*
X168929999Y-101220135D01*
X168888316Y-101228427D01*
X168888308Y-101228429D01*
X168706328Y-101303807D01*
X168706315Y-101303814D01*
X168542537Y-101413248D01*
X168542533Y-101413251D01*
X168403251Y-101552533D01*
X168403248Y-101552537D01*
X168293814Y-101716315D01*
X168293807Y-101716328D01*
X168218430Y-101898306D01*
X168218427Y-101898318D01*
X168180000Y-102091504D01*
X167212735Y-102091504D01*
X167185810Y-102057741D01*
X166222086Y-103021465D01*
X166127171Y-102890825D01*
X165999175Y-102762829D01*
X165868533Y-102667912D01*
X166832257Y-101704187D01*
X166698956Y-101597884D01*
X166461200Y-101448492D01*
X166208217Y-101326662D01*
X165943180Y-101233922D01*
X165943178Y-101233921D01*
X165669424Y-101171439D01*
X165669412Y-101171437D01*
X165390401Y-101140000D01*
X165109598Y-101140000D01*
X164830587Y-101171437D01*
X164830575Y-101171439D01*
X164556821Y-101233921D01*
X164556819Y-101233922D01*
X164291782Y-101326662D01*
X164038799Y-101448492D01*
X163801043Y-101597884D01*
X163667741Y-101704187D01*
X164631466Y-102667912D01*
X164500825Y-102762829D01*
X164372829Y-102890825D01*
X164277912Y-103021466D01*
X163314187Y-102057741D01*
X163207884Y-102191043D01*
X163058492Y-102428799D01*
X162936662Y-102681782D01*
X162843922Y-102946819D01*
X162843921Y-102946821D01*
X162781439Y-103220575D01*
X162781437Y-103220587D01*
X162750000Y-103499598D01*
X155749999Y-103499598D01*
X155718562Y-103220587D01*
X155718560Y-103220575D01*
X155656078Y-102946821D01*
X155656077Y-102946819D01*
X155563337Y-102681782D01*
X155441507Y-102428799D01*
X155292115Y-102191043D01*
X155185810Y-102057741D01*
X154222086Y-103021465D01*
X154127171Y-102890825D01*
X153999175Y-102762829D01*
X153868533Y-102667912D01*
X154832257Y-101704187D01*
X154698956Y-101597884D01*
X154461200Y-101448492D01*
X154208217Y-101326662D01*
X153943180Y-101233922D01*
X153943178Y-101233921D01*
X153669424Y-101171439D01*
X153669412Y-101171437D01*
X153390401Y-101140000D01*
X153109598Y-101140000D01*
X152830587Y-101171437D01*
X152830575Y-101171439D01*
X152556821Y-101233921D01*
X152556819Y-101233922D01*
X152291782Y-101326662D01*
X152038799Y-101448492D01*
X151801043Y-101597884D01*
X151667741Y-101704187D01*
X152631466Y-102667912D01*
X152500825Y-102762829D01*
X152372829Y-102890825D01*
X152277912Y-103021466D01*
X151314187Y-102057741D01*
X151207884Y-102191043D01*
X151058492Y-102428799D01*
X150936662Y-102681782D01*
X150843922Y-102946819D01*
X150843921Y-102946821D01*
X150781439Y-103220575D01*
X150781437Y-103220587D01*
X150750000Y-103499598D01*
X150300500Y-103499598D01*
X150300500Y-100424500D01*
X150320185Y-100357461D01*
X150372989Y-100311706D01*
X150424500Y-100300500D01*
X199575500Y-100300500D01*
X199642539Y-100320185D01*
G37*
%TD.AperFunction*%
%TA.AperFunction,Conductor*%
G36*
X184304075Y-148692993D02*
G01*
X184369901Y-148807007D01*
X184462993Y-148900099D01*
X184577007Y-148965925D01*
X184640590Y-148982962D01*
X183990184Y-149633367D01*
X183990019Y-149634154D01*
X183940965Y-149683908D01*
X183880768Y-149699500D01*
X183239758Y-149699500D01*
X183172719Y-149679815D01*
X183126964Y-149627011D01*
X183117020Y-149557853D01*
X183146045Y-149494297D01*
X183152077Y-149487819D01*
X183182414Y-149457482D01*
X183260104Y-149379792D01*
X183260106Y-149379788D01*
X183260109Y-149379786D01*
X183336709Y-149274353D01*
X183385051Y-149207816D01*
X183389793Y-149198508D01*
X183437763Y-149147711D01*
X183505583Y-149130911D01*
X183571719Y-149153445D01*
X183610763Y-149198500D01*
X183615373Y-149207547D01*
X183654728Y-149261716D01*
X184287036Y-148629407D01*
X184304075Y-148692993D01*
G37*
%TD.AperFunction*%
%TA.AperFunction,Conductor*%
G36*
X185923181Y-149299628D02*
G01*
X185956511Y-149360249D01*
X185959500Y-149373620D01*
X185959501Y-149397872D01*
X185965909Y-149457483D01*
X185996735Y-149540133D01*
X185998593Y-149548440D01*
X185996838Y-149575153D01*
X185998748Y-149601859D01*
X185994582Y-149609487D01*
X185994013Y-149618160D01*
X185978094Y-149639683D01*
X185965263Y-149663182D01*
X185957633Y-149667347D01*
X185952466Y-149674335D01*
X185927434Y-149683836D01*
X185903939Y-149696666D01*
X185889568Y-149698211D01*
X185887145Y-149699131D01*
X185885078Y-149698693D01*
X185877582Y-149699500D01*
X185659231Y-149699500D01*
X185592192Y-149679815D01*
X185565773Y-149649326D01*
X184899408Y-148982962D01*
X184962993Y-148965925D01*
X185077007Y-148900099D01*
X185170099Y-148807007D01*
X185235925Y-148692993D01*
X185252962Y-148629409D01*
X185923181Y-149299628D01*
G37*
%TD.AperFunction*%
%TA.AperFunction,Conductor*%
G36*
X199584483Y-146230931D02*
G01*
X199634147Y-146241364D01*
X199683905Y-146290415D01*
X199699500Y-146350618D01*
X199699500Y-146787246D01*
X199679815Y-146854285D01*
X199627011Y-146900040D01*
X199557853Y-146909984D01*
X199510403Y-146892785D01*
X199369124Y-146805643D01*
X199369119Y-146805641D01*
X199286346Y-146778213D01*
X199228901Y-146738440D01*
X199202078Y-146673924D01*
X199214393Y-146605149D01*
X199224875Y-146592769D01*
X199225921Y-146579474D01*
X198546447Y-145900000D01*
X198552661Y-145900000D01*
X198654394Y-145872741D01*
X198745606Y-145820080D01*
X198820080Y-145745606D01*
X198872741Y-145654394D01*
X198900000Y-145552661D01*
X198900000Y-145546447D01*
X199584483Y-146230931D01*
G37*
%TD.AperFunction*%
%TA.AperFunction,Conductor*%
G36*
X179947231Y-134520185D02*
G01*
X179992986Y-134572989D01*
X180002930Y-134642147D01*
X179973905Y-134705703D01*
X179967873Y-134712181D01*
X179294727Y-135385325D01*
X179294726Y-135385326D01*
X179224969Y-135489728D01*
X179224959Y-135489743D01*
X179223534Y-135491873D01*
X179174499Y-135610255D01*
X179174497Y-135610261D01*
X179149500Y-135735928D01*
X179149500Y-135735931D01*
X179149500Y-146134069D01*
X179149500Y-146134071D01*
X179149499Y-146134071D01*
X179171683Y-146245591D01*
X179165456Y-146315183D01*
X179122593Y-146370360D01*
X179056703Y-146393605D01*
X178988706Y-146377537D01*
X178962388Y-146357467D01*
X178826782Y-146221861D01*
X178826781Y-146221860D01*
X178826780Y-146221859D01*
X178662920Y-146112371D01*
X178662911Y-146112366D01*
X178570093Y-146073920D01*
X178534165Y-146059038D01*
X178480836Y-146036949D01*
X178480832Y-146036948D01*
X178480828Y-146036946D01*
X178384188Y-146017724D01*
X178287544Y-145998500D01*
X178287541Y-145998500D01*
X174664783Y-145998500D01*
X174597744Y-145978815D01*
X174577102Y-145962181D01*
X173836819Y-145221898D01*
X173803334Y-145160575D01*
X173800500Y-145134217D01*
X173800500Y-134624500D01*
X173820185Y-134557461D01*
X173872989Y-134511706D01*
X173924500Y-134500500D01*
X177801459Y-134500500D01*
X179880192Y-134500500D01*
X179947231Y-134520185D01*
G37*
%TD.AperFunction*%
%TA.AperFunction,Conductor*%
G36*
X199584483Y-143690931D02*
G01*
X199634147Y-143701364D01*
X199683905Y-143750415D01*
X199699500Y-143810618D01*
X199699500Y-144649380D01*
X199679815Y-144716419D01*
X199627011Y-144762174D01*
X199583726Y-144769824D01*
X198900000Y-145453551D01*
X198900000Y-145447339D01*
X198872741Y-145345606D01*
X198820080Y-145254394D01*
X198745606Y-145179920D01*
X198654394Y-145127259D01*
X198552661Y-145100000D01*
X198546446Y-145100000D01*
X199225922Y-144420524D01*
X199225921Y-144420523D01*
X199181359Y-144388147D01*
X199181350Y-144388141D01*
X199087819Y-144340485D01*
X199037023Y-144292511D01*
X199020228Y-144224690D01*
X199042765Y-144158555D01*
X199087820Y-144119515D01*
X199181346Y-144071861D01*
X199181347Y-144071861D01*
X199225921Y-144039474D01*
X198546447Y-143360000D01*
X198552661Y-143360000D01*
X198654394Y-143332741D01*
X198745606Y-143280080D01*
X198820080Y-143205606D01*
X198872741Y-143114394D01*
X198900000Y-143012661D01*
X198900000Y-143006447D01*
X199584483Y-143690931D01*
G37*
%TD.AperFunction*%
%TA.AperFunction,Conductor*%
G36*
X199584483Y-141150931D02*
G01*
X199634147Y-141161364D01*
X199683905Y-141210415D01*
X199699500Y-141270618D01*
X199699500Y-142109380D01*
X199679815Y-142176419D01*
X199627011Y-142222174D01*
X199583726Y-142229824D01*
X198900000Y-142913551D01*
X198900000Y-142907339D01*
X198872741Y-142805606D01*
X198820080Y-142714394D01*
X198745606Y-142639920D01*
X198654394Y-142587259D01*
X198552661Y-142560000D01*
X198546446Y-142560000D01*
X199225922Y-141880524D01*
X199225921Y-141880523D01*
X199181359Y-141848147D01*
X199181350Y-141848141D01*
X199087819Y-141800485D01*
X199037023Y-141752511D01*
X199020228Y-141684690D01*
X199042765Y-141618555D01*
X199087820Y-141579515D01*
X199181346Y-141531861D01*
X199181347Y-141531861D01*
X199225921Y-141499474D01*
X198546447Y-140820000D01*
X198552661Y-140820000D01*
X198654394Y-140792741D01*
X198745606Y-140740080D01*
X198820080Y-140665606D01*
X198872741Y-140574394D01*
X198900000Y-140472661D01*
X198900000Y-140466447D01*
X199584483Y-141150931D01*
G37*
%TD.AperFunction*%
%TA.AperFunction,Conductor*%
G36*
X199584483Y-138610931D02*
G01*
X199634147Y-138621364D01*
X199683905Y-138670415D01*
X199699500Y-138730618D01*
X199699500Y-139569380D01*
X199679815Y-139636419D01*
X199627011Y-139682174D01*
X199583726Y-139689824D01*
X198900000Y-140373551D01*
X198900000Y-140367339D01*
X198872741Y-140265606D01*
X198820080Y-140174394D01*
X198745606Y-140099920D01*
X198654394Y-140047259D01*
X198552661Y-140020000D01*
X198546446Y-140020000D01*
X199225922Y-139340524D01*
X199225921Y-139340523D01*
X199181359Y-139308147D01*
X199181350Y-139308141D01*
X199087819Y-139260485D01*
X199037023Y-139212511D01*
X199020228Y-139144690D01*
X199042765Y-139078555D01*
X199087820Y-139039515D01*
X199181346Y-138991861D01*
X199181347Y-138991861D01*
X199225921Y-138959474D01*
X198546447Y-138280000D01*
X198552661Y-138280000D01*
X198654394Y-138252741D01*
X198745606Y-138200080D01*
X198820080Y-138125606D01*
X198872741Y-138034394D01*
X198900000Y-137932661D01*
X198900000Y-137926447D01*
X199584483Y-138610931D01*
G37*
%TD.AperFunction*%
%TA.AperFunction,Conductor*%
G36*
X199584483Y-136070931D02*
G01*
X199634147Y-136081364D01*
X199683905Y-136130415D01*
X199699500Y-136190618D01*
X199699500Y-137029380D01*
X199679815Y-137096419D01*
X199627011Y-137142174D01*
X199583726Y-137149824D01*
X198900000Y-137833551D01*
X198900000Y-137827339D01*
X198872741Y-137725606D01*
X198820080Y-137634394D01*
X198745606Y-137559920D01*
X198654394Y-137507259D01*
X198552661Y-137480000D01*
X198546446Y-137480000D01*
X199225922Y-136800524D01*
X199225921Y-136800523D01*
X199181359Y-136768147D01*
X199181350Y-136768141D01*
X199087819Y-136720485D01*
X199037023Y-136672511D01*
X199020228Y-136604690D01*
X199042765Y-136538555D01*
X199087820Y-136499515D01*
X199181346Y-136451861D01*
X199181347Y-136451861D01*
X199225921Y-136419474D01*
X198546447Y-135740000D01*
X198552661Y-135740000D01*
X198654394Y-135712741D01*
X198745606Y-135660080D01*
X198820080Y-135585606D01*
X198872741Y-135494394D01*
X198900000Y-135392661D01*
X198900000Y-135386447D01*
X199584483Y-136070931D01*
G37*
%TD.AperFunction*%
%TA.AperFunction,Conductor*%
G36*
X199584483Y-133530931D02*
G01*
X199634147Y-133541364D01*
X199683905Y-133590415D01*
X199699500Y-133650618D01*
X199699500Y-134489380D01*
X199679815Y-134556419D01*
X199627011Y-134602174D01*
X199583726Y-134609824D01*
X198900000Y-135293551D01*
X198900000Y-135287339D01*
X198872741Y-135185606D01*
X198820080Y-135094394D01*
X198745606Y-135019920D01*
X198654394Y-134967259D01*
X198552661Y-134940000D01*
X198546446Y-134940000D01*
X199225922Y-134260524D01*
X199225921Y-134260523D01*
X199181359Y-134228147D01*
X199181350Y-134228141D01*
X199087819Y-134180485D01*
X199037023Y-134132511D01*
X199020228Y-134064690D01*
X199042765Y-133998555D01*
X199087820Y-133959515D01*
X199181346Y-133911861D01*
X199181347Y-133911861D01*
X199225921Y-133879474D01*
X198546447Y-133200000D01*
X198552661Y-133200000D01*
X198654394Y-133172741D01*
X198745606Y-133120080D01*
X198820080Y-133045606D01*
X198872741Y-132954394D01*
X198900000Y-132852661D01*
X198900000Y-132846447D01*
X199584483Y-133530931D01*
G37*
%TD.AperFunction*%
%TA.AperFunction,Conductor*%
G36*
X199584483Y-130990931D02*
G01*
X199634147Y-131001364D01*
X199683905Y-131050415D01*
X199699500Y-131110618D01*
X199699500Y-131949380D01*
X199679815Y-132016419D01*
X199627011Y-132062174D01*
X199583726Y-132069824D01*
X198900000Y-132753551D01*
X198900000Y-132747339D01*
X198872741Y-132645606D01*
X198820080Y-132554394D01*
X198745606Y-132479920D01*
X198654394Y-132427259D01*
X198552661Y-132400000D01*
X198546446Y-132400000D01*
X199225922Y-131720524D01*
X199225921Y-131720523D01*
X199181359Y-131688147D01*
X199181350Y-131688141D01*
X199087819Y-131640485D01*
X199037023Y-131592511D01*
X199020228Y-131524690D01*
X199042765Y-131458555D01*
X199087820Y-131419515D01*
X199181346Y-131371861D01*
X199181347Y-131371861D01*
X199225921Y-131339474D01*
X198546447Y-130660000D01*
X198552661Y-130660000D01*
X198654394Y-130632741D01*
X198745606Y-130580080D01*
X198820080Y-130505606D01*
X198872741Y-130414394D01*
X198900000Y-130312661D01*
X198900000Y-130306447D01*
X199584483Y-130990931D01*
G37*
%TD.AperFunction*%
%TA.AperFunction,Conductor*%
G36*
X199584483Y-128450931D02*
G01*
X199634147Y-128461364D01*
X199683905Y-128510415D01*
X199699500Y-128570618D01*
X199699500Y-129409380D01*
X199679815Y-129476419D01*
X199627011Y-129522174D01*
X199583726Y-129529824D01*
X198900000Y-130213551D01*
X198900000Y-130207339D01*
X198872741Y-130105606D01*
X198820080Y-130014394D01*
X198745606Y-129939920D01*
X198654394Y-129887259D01*
X198552661Y-129860000D01*
X198546446Y-129860000D01*
X199225922Y-129180524D01*
X199225921Y-129180523D01*
X199181359Y-129148147D01*
X199181350Y-129148141D01*
X199087819Y-129100485D01*
X199037023Y-129052511D01*
X199020228Y-128984690D01*
X199042765Y-128918555D01*
X199087820Y-128879515D01*
X199181346Y-128831861D01*
X199181347Y-128831861D01*
X199225921Y-128799474D01*
X198546447Y-128120000D01*
X198552661Y-128120000D01*
X198654394Y-128092741D01*
X198745606Y-128040080D01*
X198820080Y-127965606D01*
X198872741Y-127874394D01*
X198900000Y-127772661D01*
X198900000Y-127766447D01*
X199584483Y-128450931D01*
G37*
%TD.AperFunction*%
%TA.AperFunction,Conductor*%
G36*
X153602752Y-118544886D02*
G01*
X153626612Y-118547017D01*
X153635783Y-118554138D01*
X153646966Y-118557271D01*
X153662878Y-118575178D01*
X153681797Y-118589869D01*
X153685662Y-118600819D01*
X153693376Y-118609500D01*
X153697080Y-118633166D01*
X153705054Y-118655755D01*
X153702385Y-118667057D01*
X153704181Y-118678529D01*
X153694504Y-118700438D01*
X153688999Y-118723755D01*
X153681537Y-118734607D01*
X153681595Y-118734646D01*
X153590609Y-118870814D01*
X153590602Y-118870827D01*
X153530264Y-119016498D01*
X153530261Y-119016510D01*
X153499500Y-119171153D01*
X153499500Y-119328846D01*
X153530261Y-119483489D01*
X153530264Y-119483501D01*
X153590602Y-119629172D01*
X153590609Y-119629185D01*
X153678210Y-119760288D01*
X153678213Y-119760292D01*
X153789707Y-119871786D01*
X153789711Y-119871789D01*
X153920814Y-119959390D01*
X153920827Y-119959397D01*
X154008230Y-119995599D01*
X154066503Y-120019737D01*
X154133580Y-120033079D01*
X154195488Y-120065461D01*
X154197068Y-120067014D01*
X154935324Y-120805271D01*
X154935327Y-120805274D01*
X155001518Y-120849501D01*
X155041866Y-120876461D01*
X155041875Y-120876466D01*
X155046088Y-120878211D01*
X155160256Y-120925501D01*
X155160260Y-120925501D01*
X155160261Y-120925502D01*
X155285928Y-120950500D01*
X155285931Y-120950500D01*
X158185931Y-120950500D01*
X167582688Y-120950500D01*
X167649727Y-120970185D01*
X167670369Y-120986819D01*
X168082984Y-121399434D01*
X168116469Y-121460757D01*
X168116920Y-121462924D01*
X168130261Y-121529993D01*
X168130264Y-121530005D01*
X168190602Y-121675676D01*
X168190609Y-121675689D01*
X168278210Y-121806792D01*
X168278213Y-121806796D01*
X168389707Y-121918290D01*
X168389711Y-121918293D01*
X168520814Y-122005894D01*
X168520827Y-122005901D01*
X168666498Y-122066239D01*
X168666503Y-122066241D01*
X168795142Y-122091829D01*
X168821153Y-122097003D01*
X168821156Y-122097004D01*
X168875500Y-122097004D01*
X168942539Y-122116689D01*
X168988294Y-122169493D01*
X168999500Y-122221004D01*
X168999500Y-122475500D01*
X168979815Y-122542539D01*
X168927011Y-122588294D01*
X168875500Y-122599500D01*
X154265783Y-122599500D01*
X154198744Y-122579815D01*
X154178102Y-122563181D01*
X153036819Y-121421898D01*
X153003334Y-121360575D01*
X153000500Y-121334217D01*
X153000500Y-118954141D01*
X153020185Y-118887102D01*
X153072989Y-118841347D01*
X153081149Y-118837966D01*
X153092331Y-118833796D01*
X153102751Y-118825996D01*
X153187546Y-118762518D01*
X153207546Y-118747546D01*
X153293796Y-118632331D01*
X153297960Y-118621165D01*
X153310778Y-118604041D01*
X153319422Y-118584473D01*
X153331299Y-118576628D01*
X153339829Y-118565234D01*
X153359872Y-118557757D01*
X153377724Y-118545968D01*
X153400749Y-118542510D01*
X153405293Y-118540816D01*
X153412594Y-118540510D01*
X153413395Y-118540500D01*
X153558540Y-118540500D01*
X153558541Y-118540500D01*
X153568255Y-118538567D01*
X153579686Y-118538425D01*
X153602752Y-118544886D01*
G37*
%TD.AperFunction*%
%TA.AperFunction,Conductor*%
G36*
X159205704Y-112828177D02*
G01*
X159212182Y-112834209D01*
X159272490Y-112894517D01*
X159380042Y-112972658D01*
X159463568Y-113033344D01*
X159531794Y-113068106D01*
X159582590Y-113116080D01*
X159599500Y-113178591D01*
X159599500Y-116821407D01*
X159579815Y-116888446D01*
X159531796Y-116931891D01*
X159463569Y-116966655D01*
X159380047Y-117027338D01*
X159272490Y-117105483D01*
X159272488Y-117105485D01*
X159272487Y-117105485D01*
X159105485Y-117272487D01*
X159105485Y-117272488D01*
X159105483Y-117272490D01*
X159045862Y-117354550D01*
X158966657Y-117463566D01*
X158859433Y-117674003D01*
X158786446Y-117898631D01*
X158749500Y-118131902D01*
X158749500Y-118368097D01*
X158786446Y-118601368D01*
X158859433Y-118825996D01*
X158924727Y-118954141D01*
X158966657Y-119036433D01*
X159105483Y-119227510D01*
X159272490Y-119394517D01*
X159282045Y-119401459D01*
X159314697Y-119425182D01*
X159357362Y-119480513D01*
X159363341Y-119550126D01*
X159330735Y-119611921D01*
X159269896Y-119646278D01*
X159241811Y-119649500D01*
X156739330Y-119649500D01*
X156672291Y-119629815D01*
X156626536Y-119577011D01*
X156615712Y-119515771D01*
X156619105Y-119472658D01*
X155920234Y-118773787D01*
X155962292Y-118762518D01*
X156087708Y-118690110D01*
X156190110Y-118587708D01*
X156262518Y-118462292D01*
X156273787Y-118420234D01*
X156972658Y-119119105D01*
X156972658Y-119119104D01*
X157032914Y-119036169D01*
X157032918Y-119036163D01*
X157140102Y-118825802D01*
X157213065Y-118601247D01*
X157250000Y-118368052D01*
X157250000Y-118131947D01*
X157213065Y-117898752D01*
X157140102Y-117674197D01*
X157032914Y-117463828D01*
X156972658Y-117380894D01*
X156972658Y-117380893D01*
X156273787Y-118079765D01*
X156262518Y-118037708D01*
X156190110Y-117912292D01*
X156087708Y-117809890D01*
X155962292Y-117737482D01*
X155920233Y-117726212D01*
X156619105Y-117027340D01*
X156619104Y-117027338D01*
X156536174Y-116967087D01*
X156325802Y-116859897D01*
X156101247Y-116786934D01*
X155933060Y-116760296D01*
X155869925Y-116730367D01*
X155832994Y-116671055D01*
X155833992Y-116601193D01*
X155864775Y-116550143D01*
X158777140Y-113637781D01*
X158886632Y-113473914D01*
X158962052Y-113291835D01*
X159000501Y-113098540D01*
X159000501Y-112921890D01*
X159020186Y-112854851D01*
X159072990Y-112809096D01*
X159142148Y-112799152D01*
X159205704Y-112828177D01*
G37*
%TD.AperFunction*%
%TD*%
M02*
